<svg width="56" height="56" viewBox="0 0 56 56" fill="none" xmlns="http://www.w3.org/2000/svg">
<rect x="0.5" y="0.5" width="55" height="55" rx="27.5" fill="#9391F7"/>
<rect x="0.5" y="0.5" width="55" height="55" rx="27.5" stroke="white"/>
<path d="M23.2829 28.132C25.5451 27.7734 27.0624 25.6491 26.7038 23.3869C26.3451 21.1248 24.2209 19.6075 21.9587 19.9661C19.6965 20.3247 18.1792 22.449 18.5378 24.7112C18.9241 26.9733 21.0483 28.4906 23.2829 28.132ZM34.0972 28.132C36.3594 27.7734 37.8767 25.6491 37.5181 23.3869C37.1594 21.1248 35.0352 19.6075 32.773 19.9661C30.5108 20.3247 28.9935 22.449 29.3522 24.7112C29.7108 26.9733 31.835 28.4906 34.0972 28.132Z" fill="white"/>
<path d="M28.0275 7C16.7993 7 7.69543 16.2694 7.69543 27.6907H12.8819C12.8819 19.1109 19.6133 12.1865 27.9999 12.1865C36.4141 12.1865 43.1179 19.1385 43.1179 27.6907H48.3043C48.3595 16.2694 39.2556 7 28.0275 7Z" fill="white"/>
</svg>
