<svg width="56" height="56" viewBox="0 0 56 56" fill="none" xmlns="http://www.w3.org/2000/svg">
<rect width="56" height="56" rx="28" fill="#FAF1E7"/>
<path d="M41.5682 35.5552L27.6735 21.627L13.7789 35.5552L20.7263 42.5196L27.6736 35.5553L34.6208 42.5193L41.5682 35.5552Z" fill="white"/>
<path d="M27.6736 35.5546L34.6209 42.5198L36.0102 39.0707L27.6736 30.7139V35.5546Z" fill="#FAF1E7" stroke="#1F2333" stroke-width="0.525729" stroke-linejoin="round"/>
<path d="M41.5691 35.5532L34.621 42.5177L36.0105 39.0707L44.3473 30.7139L41.5691 35.5532Z" fill="#1F2333" stroke="#1F2333" stroke-width="0.525729" stroke-linejoin="round"/>
<path d="M27.6738 35.5546L20.7264 42.5198L19.337 39.0707L27.6738 30.7139V35.5546Z" fill="#1F2333" stroke="#1F2333" stroke-width="0.525729" stroke-linejoin="round"/>
<path d="M13.7782 35.5532L20.7263 42.5177L19.3369 39.0707L11.0002 30.7139L13.7782 35.5532Z" fill="#FAF1E7" stroke="#1F2333" stroke-width="0.525729" stroke-linejoin="round"/>
<path d="M44.347 30.7136L27.6735 13.9998L11 30.7136L19.3369 39.0708L27.6736 30.7137L36.0102 39.0705L44.347 30.7136Z" fill="url(#paint0_linear_140_345)" stroke="#1F2333" stroke-width="0.525729" stroke-linejoin="round"/>
<defs>
<linearGradient id="paint0_linear_140_345" x1="44.3467" y1="26.535" x2="11" y2="26.535" gradientUnits="userSpaceOnUse">
<stop stop-color="#FAF1E7"/>
<stop offset="0.26021" stop-color="#FDCEAA"/>
<stop offset="0.61201" stop-color="#F4837D"/>
<stop offset="0.9999" stop-color="#B9AAFD"/>
</linearGradient>
</defs>
</svg>
