<svg width="56" height="56" viewBox="0 0 56 56" fill="none" xmlns="http://www.w3.org/2000/svg">
<rect width="56" height="56" rx="28" fill="#0C1D2F"/>
<g clip-path="url(#clip0_202_8746)">
<path d="M39.8106 28.7895L22.4632 38.8366C21.2652 39.5305 20.8546 41.0669 21.546 42.2683C22.2374 43.4696 23.7691 43.8811 24.9671 43.1872L42.3145 33.1401C43.5126 32.4462 43.9232 30.9099 43.2318 29.7085C42.5403 28.5071 41.0087 28.0957 39.8106 28.7895Z" fill="#FF7829"/>
<path d="M27.8124 25.5775L14.8019 33.1129C13.6039 33.8067 13.1932 35.3431 13.8846 36.5445C14.5761 37.7459 16.1078 38.1573 17.3058 37.4634L30.3163 29.928C31.5143 29.2342 31.925 27.6978 31.2335 26.4964C30.5421 25.2951 29.0104 24.8836 27.8124 25.5775Z" fill="#FCBF22"/>
<path d="M31.03 13.5321L13.6826 23.5792C12.4846 24.2731 12.074 25.8095 12.7654 27.0108C13.4568 28.2122 14.9885 28.6236 16.1865 27.9298L33.5339 17.8826C34.7319 17.1888 35.1426 15.6524 34.4511 14.451C33.7597 13.2497 32.228 12.8382 31.03 13.5321Z" fill="#2AE5B9"/>
</g>
<defs>
<clipPath id="clip0_202_8746">
<rect width="31.5" height="31.5" fill="white" transform="translate(12.25 12.25)"/>
</clipPath>
</defs>
</svg>
