<svg width="56" height="56" viewBox="0 0 56 56" fill="none" xmlns="http://www.w3.org/2000/svg">
<rect width="56" height="56" rx="28" fill="white"/>
<path d="M27.5 6C27.5 4.34315 28.8483 2.98074 30.4922 3.18721C32.6817 3.46221 34.8295 4.03832 36.876 4.9033C39.8483 6.15966 42.5493 8.00084 44.8242 10.3222C47.0992 12.6436 48.9035 15.3997 50.1348 18.4327C51.366 21.4658 52 24.717 52 28L46.5 29.5306L41 28C41 26.1911 40.651 24.3998 39.9727 22.7286C39.2942 21.0572 38.2995 19.5385 37.0459 18.2593C35.7923 16.9801 34.3039 15.9651 32.666 15.2728C31.9549 14.9723 31.2217 14.7351 30.4744 14.5629C28.8599 14.1909 27.5 12.8813 27.5 11.2245V6Z" fill="#3F75FF"/>
<path d="M52 28C52 31.283 51.366 34.5342 50.1348 37.5673C48.9035 40.6003 47.0992 43.3564 44.8242 45.6778C42.5493 47.9992 39.8483 49.8403 36.876 51.0967C34.8295 51.9617 32.6817 52.5378 30.4922 52.8128C28.8483 53.0193 27.5 51.6569 27.5 50V44.7755C27.5 43.1187 28.8599 41.8091 30.4744 41.4371C31.2217 41.2649 31.9549 41.0277 32.666 40.7272C34.3039 40.0349 35.7923 39.0199 37.0459 37.7407C38.2995 36.4615 39.2942 34.9428 39.9727 33.2714C40.651 31.6002 41 29.8089 41 28L45.5 30.0408L52 28Z" fill="#004999"/>
<path d="M21.5 46.376C21.5 48.0329 20.1492 49.5714 18.5021 49.3921C17.8214 49.318 17.1248 49.1119 16.0991 48.6075C13.8194 47.4866 11.7481 45.8436 10.0033 43.7723C8.25855 41.7011 6.87452 39.2421 5.93026 36.5359C4.986 33.8297 4.5 30.9292 4.5 28C4.5 25.0708 4.98601 22.1703 5.93026 19.4641C6.87452 16.7578 8.25855 14.2989 10.0033 12.2277C11.7481 10.1564 13.8194 8.5134 16.0991 7.39245C17.1248 6.88807 17.8214 6.682 18.5021 6.6079C20.1492 6.42859 21.5 7.96709 21.5 9.62394L21.5 28L21.5 46.376Z" fill="#3F75FF"/>
<path d="M21.5 46.3766C21.5 48.0335 20.1494 49.5695 18.502 49.3924C17.8213 49.3193 17.1248 49.1158 16.0991 48.6178C13.8194 47.5109 11.7481 45.8886 10.0033 43.8434C8.25855 41.7982 6.87452 39.3702 5.93026 36.698C4.986 34.0259 4.5 31.1619 4.5 28.2695C4.5 25.3772 5.79258 30.4304 6.73684 27.7583C7.6811 25.0861 4.1855 30.3149 5.93026 28.2697C7.67503 26.2245 4.4572 29.3764 6.73684 28.2695C9.01648 27.1627 5.16411 28.269 7.63158 28.269L12.1053 28.2695L21.5 28.2695L21.5 46.3766Z" fill="#004999"/>
<path d="M3 26.4694L5.5 28L7.65894 29.2239C9.12052 30.0524 10.9005 30.0915 12.3971 29.328L13.9593 28.531C15.255 27.8699 16.7744 27.8058 18.1211 28.3555L19.9653 29.1083C20.6467 29.3864 21.3811 29.5106 22.1161 29.4722L39.1609 28.5803C40.0381 28.5343 40.912 28.7204 41.6945 29.1196L43.3157 29.9468C44.6935 30.6497 46.3191 30.6754 47.7184 30.0164L51.5477 28.213C51.8455 28.0727 52.1707 28 52.5 28V28" stroke="white" stroke-width="3"/>
</svg>
