<svg width="56" height="56" viewBox="0 0 56 56" fill="none" xmlns="http://www.w3.org/2000/svg">
<rect width="56" height="56" rx="28" fill="black"/>
<path d="M41.4346 17.3936L38.4961 20.3311C40.0697 22.4811 41 25.1316 41 28C41 30.8682 40.0694 33.5181 38.4961 35.668L41.4346 38.6064L38.6064 41.4355L35.668 38.4971C33.5182 40.0702 30.868 41 28 41C25.1318 41 22.481 40.0704 20.3311 38.4971L17.3936 41.4355L14.5654 38.6064L17.5029 35.668C15.9299 33.5182 15 30.868 15 28C15 25.132 15.9288 22.4809 17.502 20.3311L14.5654 17.3936L17.3936 14.5654L20.3311 17.5029C22.481 15.9296 25.1318 15 28 15C30.868 15 33.5182 15.9299 35.668 17.5029L38.6064 14.5654L41.4346 17.3936ZM28 19C23.0294 19 19 23.0294 19 28C19 32.9706 23.0294 37 28 37C32.9706 37 37 32.9706 37 28C37 23.0294 32.9706 19 28 19Z" fill="white"/>
</svg>
