<svg width="56" height="56" viewBox="0 0 56 56" fill="none" xmlns="http://www.w3.org/2000/svg">
<g clip-path="url(#clip0_135_31)">
<path d="M56 0H0V56H56V0Z" fill="#2973FF"/>
<path opacity="0.8" d="M16.4249 33.0268V41.1765C16.4249 41.6783 16.8495 41.8866 16.9816 41.9339C17.1137 41.9907 17.5572 42.1137 17.9535 41.7446L24.1189 35.8195C24.6439 35.3153 25.1507 34.7847 25.5315 34.1642C25.7107 33.8724 25.785 33.7083 25.785 33.7083C26.1624 32.9414 26.1624 32.2031 25.7943 31.465C25.2473 30.3668 23.8507 29.2499 21.7465 28.1898L18.1516 30.1966C17.0854 30.8022 16.4249 31.8718 16.4249 33.0268Z" fill="white"/>
<path d="M12.88 14.8999V23.4474C12.88 24.517 13.5971 25.4636 14.6162 25.7665C18.0884 26.7698 24.1366 28.9279 25.5991 32.0989C25.7877 32.5156 25.901 32.9224 25.939 33.3486C26.9108 31.5784 27.3542 29.5434 27.1466 27.4797C26.8635 24.5548 25.316 21.895 22.9006 20.2006L14.2859 14.171C14.1349 14.0574 13.9556 14.0006 13.7764 14.0006C13.6254 14.0006 13.4933 14.029 13.3518 14.1047C13.0687 14.2657 12.88 14.5591 12.88 14.8999Z" fill="white"/>
<path opacity="0.8" d="M39.3565 33.0268V41.1765C39.3565 41.6783 38.932 41.8866 38.7996 41.9339C38.6677 41.9907 38.2239 42.1137 37.828 41.7446L31.519 35.6818C31.0895 35.2691 30.6793 34.8325 30.3559 34.3322C30.0997 33.9363 29.9964 33.7083 29.9964 33.7083C29.619 32.9414 29.619 32.2031 29.9869 31.465C30.5343 30.3668 31.9306 29.2499 34.0346 28.1898L37.6298 30.1966C38.7055 30.8022 39.3565 31.8718 39.3565 33.0268Z" fill="white"/>
<path d="M42.9072 14.8992V23.4468C42.9072 24.5164 42.1898 25.4629 41.1706 25.7659C37.6986 26.7692 31.6504 28.9274 30.1879 32.0984C29.9989 32.515 29.8858 32.9218 29.848 33.348C28.8764 31.5778 28.4329 29.5428 28.6404 27.4791C28.9232 24.5542 30.4707 21.8944 32.8866 20.2L41.5013 14.1704C41.6522 14.0568 41.8314 14 42.0106 14C42.1616 14 42.2937 14.0284 42.4351 14.1041C42.7182 14.265 42.9072 14.5585 42.9072 14.8992Z" fill="white"/>
</g>
<rect x="0.5" y="0.5" width="55" height="55" rx="27.5" stroke="white"/>
<defs>
<clipPath id="clip0_135_31">
<rect width="56" height="56" rx="28" fill="white"/>
</clipPath>
</defs>
</svg>
