<svg width="56" height="56" viewBox="0 0 56 56" fill="none" xmlns="http://www.w3.org/2000/svg">
<rect width="56" height="56" rx="28" fill="#8BBD5A"/>
<path fill-rule="evenodd" clip-rule="evenodd" d="M17.6513 17.1111H27.0386C32.7481 17.1111 37.0765 20.1428 38.6869 24.5528H41.6111V27.2192H39.303C39.3474 27.6404 39.3703 28.0702 39.3703 28.5058V28.5717C39.3703 29.0617 39.3416 29.546 39.2843 30.0188H41.6111V32.6837H38.631C36.979 37.0335 32.6851 40.0351 27.0401 40.0351H17.6513V32.6837H14.3889V30.0188H17.6513V27.2192H14.3889V24.5543H17.6513V17.1111ZM20.2746 32.6837V37.6439H27.0372C31.2122 37.6439 34.3127 35.6566 35.7555 32.6837H20.2746ZM36.5592 30.0188H20.2746V27.2192H36.565C36.6237 27.659 36.6552 28.1104 36.6552 28.5717V28.6362C36.6552 29.1076 36.6223 29.5675 36.5592 30.0173V30.0188ZM27.0401 19.4967C31.2323 19.4967 34.3428 21.5369 35.777 24.5514H20.2746V19.4981H27.0372L27.0401 19.4967Z" fill="white"/>
</svg>
