<svg width="56" height="57" viewBox="0 0 56 57" fill="none" xmlns="http://www.w3.org/2000/svg">
<rect x="0.5" y="0.554443" width="55" height="55" rx="27.5" fill="white"/>
<rect x="0.5" y="0.554443" width="55" height="55" rx="27.5" stroke="#BEBEBE"/>
<path d="M32.0759 30.0873H43.4946C43.9392 30.0873 44.0709 29.4699 43.6672 29.2824L32.0734 23.868V12.0059C32.0734 11.5649 31.4933 11.4196 31.2933 11.8121L26.4814 21.2571L21.108 18.7592C20.7515 18.594 20.3901 18.9803 20.5689 19.3368L23.9264 26.0206H12.5052C12.0605 26.0206 11.9288 26.6379 12.3338 26.828L23.9264 32.2423V44.102C23.9264 44.5442 24.5077 44.6895 24.7077 44.297L29.5183 34.852L34.8843 37.3561C35.2407 37.5225 35.6022 37.1362 35.4233 36.7797L32.0746 30.0897L32.0759 30.0873Z" fill="url(#paint0_linear_135_397)"/>
<defs>
<linearGradient id="paint0_linear_135_397" x1="36.422" y1="21.19" x2="16.6451" y2="35.837" gradientUnits="userSpaceOnUse">
<stop stop-color="#FA43BD"/>
<stop offset="1" stop-color="#FFA930"/>
</linearGradient>
</defs>
</svg>
