<svg width="56" height="56" viewBox="0 0 56 56" fill="none" xmlns="http://www.w3.org/2000/svg">
<g clip-path="url(#clip0_140_558)">
<path d="M28 56C43.464 56 56 43.464 56 28C56 12.536 43.464 0 28 0C12.536 0 0 12.536 0 28C0 43.464 12.536 56 28 56Z" fill="white"/>
<path d="M6.29999 35.056C5.56079 32.7768 5.17999 30.3968 5.17999 28L5.34799 27.8712L27.356 27.916L28 28L6.29999 35.056Z" fill="url(#paint0_radial_140_558)"/>
<path d="M35.0504 49.7C31.6232 50.8144 27.9888 51.1 24.4272 50.5344L24.2592 50.2768L27.9216 28.2912L27.9944 28L35.0448 49.7H35.0504Z" fill="url(#paint1_radial_140_558)"/>
<path d="M50.82 28C50.82 30.3968 50.4448 32.7712 49.7056 35.0504H49.2128L28.1232 28.084L28.0056 28H50.8256L50.82 28Z" fill="url(#paint2_radial_140_558)"/>
<path d="M9.54239 14.5879C10.2424 13.6191 11.0208 12.7119 11.8664 11.8663L12.0568 11.9223L27.8936 27.8207L28 27.9999L9.54239 14.5879Z" fill="url(#paint3_radial_140_558)"/>
<path d="M11.8664 11.8664C15.2712 8.46158 19.6728 6.21598 24.4328 5.46558L24.5336 5.63358L28 27.636V28L11.8664 11.8664Z" fill="url(#paint4_radial_140_558)"/>
<path d="M24.4272 5.46556C27.9832 4.89996 31.6232 5.18556 35.0504 6.29996L28 28L24.4272 5.46556Z" fill="url(#paint5_radial_140_558)"/>
<path d="M5.17999 28C5.17999 25.6032 5.55519 23.2288 6.29439 20.9496L27.9944 28H5.17999Z" fill="url(#paint6_radial_140_558)"/>
<path d="M41.412 9.54236C45.3096 12.376 48.2104 16.3688 49.7 20.9496L28 28L41.412 9.54236Z" fill="url(#paint7_radial_140_558)"/>
<path d="M14.588 46.4576C12.6504 45.052 10.948 43.344 9.54239 41.412L28 28L14.588 46.4576Z" fill="url(#paint8_radial_140_558)"/>
<path d="M24.4328 50.5344C23.2512 50.3496 22.0864 50.0696 20.9496 49.7L28 28L24.4328 50.5344Z" fill="url(#paint9_radial_140_558)"/>
<path d="M49.7 35.0504C48.2104 39.6312 45.3096 43.6296 41.412 46.4576L28 28L49.7 35.0504Z" fill="url(#paint10_radial_140_558)"/>
</g>
<defs>
<radialGradient id="paint0_radial_140_558" cx="0" cy="0" r="1" gradientUnits="userSpaceOnUse" gradientTransform="translate(28.4698 28.316) rotate(-180) scale(30.6354)">
<stop stop-color="#6D28FF"/>
<stop offset="1" stop-color="#F7A7F9"/>
</radialGradient>
<radialGradient id="paint1_radial_140_558" cx="0" cy="0" r="1" gradientUnits="userSpaceOnUse" gradientTransform="translate(28.1639 28.8944) rotate(90) scale(23.543 23.543)">
<stop stop-color="#FFCD6B"/>
<stop offset="1" stop-color="#EB5EDF"/>
</radialGradient>
<radialGradient id="paint2_radial_140_558" cx="0" cy="0" r="1" gradientUnits="userSpaceOnUse" gradientTransform="translate(28 28) scale(23.3464)">
<stop stop-color="#A273FF"/>
<stop offset="0.5" stop-color="#9FAEFF"/>
<stop offset="1" stop-color="#AAF2E1"/>
</radialGradient>
<radialGradient id="paint3_radial_140_558" cx="0" cy="0" r="1" gradientUnits="userSpaceOnUse" gradientTransform="translate(28 27.9943) scale(24.9984 24.9984)">
<stop stop-color="#FFD2B9"/>
<stop offset="0.3" stop-color="#C99BED"/>
<stop offset="1" stop-color="#0075FF"/>
</radialGradient>
<radialGradient id="paint4_radial_140_558" cx="0" cy="0" r="1" gradientUnits="userSpaceOnUse" gradientTransform="translate(28.0717 28.868) rotate(-99) scale(23.5525 23.5525)">
<stop stop-color="#F7A7F9"/>
<stop offset="1" stop-color="#00DDFB"/>
</radialGradient>
<radialGradient id="paint5_radial_140_558" cx="0" cy="0" r="1" gradientUnits="userSpaceOnUse" gradientTransform="translate(27.3721 28.0901) rotate(-90) scale(23.5239)">
<stop stop-color="#A273FF"/>
<stop offset="0.5" stop-color="#9FAEFF"/>
<stop offset="1" stop-color="#AAF2E1"/>
</radialGradient>
<radialGradient id="paint6_radial_140_558" cx="0" cy="0" r="1" gradientUnits="userSpaceOnUse" gradientTransform="translate(27.983 27.9824) rotate(-180) scale(23.5715)">
<stop stop-color="#FFF3D0"/>
<stop offset="1" stop-color="#FFC044"/>
</radialGradient>
<radialGradient id="paint7_radial_140_558" cx="0" cy="0" r="1" gradientUnits="userSpaceOnUse" gradientTransform="translate(28.1639 28.8944) rotate(90) scale(23.543)">
<stop stop-color="#FFCD6B"/>
<stop offset="1" stop-color="#EB5EDF"/>
</radialGradient>
<radialGradient id="paint8_radial_140_558" cx="0" cy="0" r="1" gradientUnits="userSpaceOnUse" gradientTransform="translate(27.8153 27.426) rotate(114.2) scale(25.209 25.209)">
<stop stop-color="#FFD2B9"/>
<stop offset="0.3" stop-color="#C99BED"/>
<stop offset="1" stop-color="#0075FF"/>
</radialGradient>
<radialGradient id="paint9_radial_140_558" cx="0" cy="0" r="1" gradientUnits="userSpaceOnUse" gradientTransform="translate(29.2418 28.1566) rotate(90) scale(23.6001 23.6001)">
<stop stop-color="#D4FAFF"/>
<stop offset="1" stop-color="#00DDFB"/>
</radialGradient>
<radialGradient id="paint10_radial_140_558" cx="0" cy="0" r="1" gradientUnits="userSpaceOnUse" gradientTransform="translate(28.0056 28.0029) rotate(36) scale(23.4581 23.4581)">
<stop stop-color="#0075FF"/>
<stop offset="1" stop-color="#00DDFB"/>
</radialGradient>
<clipPath id="clip0_140_558">
<rect width="56" height="56" fill="white"/>
</clipPath>
</defs>
</svg>
