<svg width="56" height="56" viewBox="0 0 56 56" fill="none" xmlns="http://www.w3.org/2000/svg">
<rect x="0.5" y="0.5" width="55" height="55" rx="27.5" fill="url(#paint0_linear_135_397)"/>
<rect x="0.5" y="0.5" width="55" height="55" rx="27.5" stroke="white"/>
<path d="M26.1583 44.7975L14.6294 31.3853C14.4133 31.1343 14.7065 30.7716 14.9972 30.9306L22.7493 35.1371C23.1146 35.3359 23.3978 35.6614 23.5419 36.0514L26.6626 44.4993C26.777 44.8099 26.3744 45.0484 26.1583 44.7975Z" fill="white"/>
<path d="M27.8232 41.7141L24.6428 25.9911C24.5957 25.7576 24.6428 25.5116 24.7696 25.3103L30.3203 16.624C30.4321 16.45 30.7029 16.542 30.6831 16.7507L28.2133 41.6941C28.1909 41.9203 27.868 41.9352 27.8232 41.7141Z" fill="white"/>
<path d="M30.5756 37.0825L36.678 28.2049C36.8866 27.9018 37.2494 27.7452 37.6147 27.7999L41.5181 28.3912C41.769 28.4285 41.8535 28.749 41.6547 28.9056L30.8812 37.3708C30.6899 37.5198 30.439 37.2838 30.5756 37.085V37.0825Z" fill="white"/>
<path d="M31.4876 30.9951L34.6082 11.2645C34.6405 11.0608 34.9239 11.0359 34.9909 11.2322L37.7589 19.2925C37.8408 19.5335 37.8209 19.7968 37.7017 20.0229L31.8577 31.1194C31.7534 31.3157 31.4527 31.2163 31.4876 30.9977V30.9951Z" fill="white"/>
<path d="M18.1105 27.1017L18.8087 22.1448C18.8385 21.9411 19.1168 21.9038 19.1988 22.0926L23.5047 32.1282C23.5917 32.3319 23.3382 32.5083 23.1767 32.3567L18.3714 27.8471C18.1677 27.6558 18.0683 27.375 18.108 27.0992L18.1105 27.1017Z" fill="white"/>
<defs>
<linearGradient id="paint0_linear_135_397" x1="106.454" y1="-4.08498" x2="106.944" y2="158.687" gradientUnits="userSpaceOnUse">
<stop stop-color="#FF8E00"/>
<stop offset="1" stop-color="#F2A52B"/>
</linearGradient>
</defs>
</svg>
