<svg width="56" height="56" viewBox="0 0 56 56" fill="none" xmlns="http://www.w3.org/2000/svg">
<rect x="0.5" y="0.5" width="55" height="55" rx="27.5" fill="black"/>
<rect x="0.5" y="0.5" width="55" height="55" rx="27.5" stroke="white"/>
<path d="M43.1177 20.7727L32.0444 40.1682C31.7097 40.7531 31.2286 41.2388 30.6496 41.5764C30.0706 41.9139 29.414 42.0917 28.7456 42.0917C28.0773 42.0917 27.4207 41.9139 26.8418 41.5764C26.2627 41.2388 25.7817 40.7531 25.4469 40.1682L23.5058 36.7707C23.4995 36.7622 23.4968 36.7517 23.4983 36.7413C23.4998 36.7307 23.5052 36.7214 23.5136 36.7151C23.522 36.7087 23.5325 36.706 23.5428 36.7075C23.5531 36.709 23.5624 36.7146 23.5687 36.723C23.9149 37.0687 24.3348 37.3297 24.7962 37.486C25.2574 37.6425 25.7481 37.69 26.2304 37.6253C26.7127 37.5605 27.174 37.385 27.579 37.1122C27.984 36.8394 28.3219 36.4765 28.5669 36.0515L37.8364 19.7991C38.0808 19.37 38.2243 18.8898 38.2557 18.3957C38.2871 17.9015 38.2056 17.4067 38.0175 16.9495C37.8295 16.4923 37.5399 16.085 37.1712 15.7592C36.8025 15.4333 36.3646 15.1977 35.8914 15.0704C35.881 15.0704 35.871 15.0663 35.8636 15.0588C35.8562 15.0514 35.8521 15.0412 35.8521 15.0307C35.8521 15.0202 35.8562 15.0101 35.8636 15.0026C35.871 14.9952 35.881 14.991 35.8914 14.991H39.8209C40.4895 14.9917 41.1463 15.1703 41.7252 15.5089C42.304 15.8475 42.7847 16.3342 43.1187 16.92C43.4527 17.5058 43.6284 18.1702 43.6283 18.8465C43.6281 19.5227 43.452 20.187 43.1177 20.7727ZM30.009 14.991H26.1699C26.1621 14.9936 26.1552 14.9986 26.1504 15.0054C26.1456 15.0122 26.1429 15.0203 26.1429 15.0287C26.1429 15.0371 26.1456 15.0452 26.1504 15.052C26.1552 15.0588 26.1621 15.0639 26.1699 15.0665C26.4285 15.1675 26.6624 15.3237 26.8558 15.5246C27.0491 15.7254 27.1973 15.9661 27.2902 16.2302C27.3832 16.4943 27.4185 16.7756 27.3941 17.0548C27.3695 17.334 27.2858 17.6046 27.1483 17.848L21.5528 27.6352C21.4082 27.8833 21.2111 28.0961 20.9756 28.2581C20.7401 28.4201 20.4721 28.5274 20.1907 28.5722C19.9093 28.6171 19.6216 28.5983 19.3483 28.5174C19.0749 28.4364 18.8227 28.2953 18.6097 28.1041C18.6034 28.0957 18.5941 28.0901 18.5838 28.0886C18.5735 28.0871 18.563 28.0898 18.5546 28.0962C18.5463 28.1025 18.5408 28.1119 18.5393 28.1223C18.5378 28.1327 18.5405 28.1433 18.5468 28.1518L20.5115 31.6009C20.7321 31.988 21.0496 32.3095 21.4321 32.5329C21.8146 32.7565 22.2486 32.8742 22.6904 32.8742C23.1321 32.8742 23.5662 32.7565 23.9487 32.5329C24.3312 32.3095 24.6487 31.988 24.8693 31.6009L32.1898 18.8057C32.4107 18.4189 32.5269 17.98 32.5267 17.5334C32.5266 17.0867 32.4102 16.648 32.1891 16.2613C31.9681 15.8746 31.6502 15.5536 31.2675 15.3306C30.8848 15.1076 30.4507 14.9905 30.009 14.991ZM16.6842 14.991C16.0291 14.991 15.3886 15.1874 14.8439 15.5555C14.2991 15.9236 13.8746 16.4468 13.6238 17.0589C13.3731 17.671 13.3075 18.3445 13.4353 18.9943C13.5632 19.6441 13.8786 20.241 14.3419 20.7094C14.8052 21.1779 15.3954 21.497 16.038 21.6262C16.6806 21.7555 17.3466 21.6891 17.9519 21.4356C18.5572 21.1821 19.0745 20.7527 19.4385 20.2018C19.8025 19.651 19.9968 19.0033 19.9968 18.3408C19.9973 17.9007 19.9119 17.4649 19.7457 17.0582C19.5794 16.6516 19.3354 16.2821 19.0277 15.9709C18.72 15.6598 18.3546 15.413 17.9525 15.2449C17.5504 15.0767 17.1194 14.9905 16.6842 14.991Z" fill="url(#paint0_linear_140_702)"/>
<defs>
<linearGradient id="paint0_linear_140_702" x1="43.2412" y1="36.4371" x2="8.40149" y2="13.041" gradientUnits="userSpaceOnUse">
<stop stop-color="#5433FF"/>
<stop offset="0.5" stop-color="#20BDFF"/>
<stop offset="1" stop-color="#5CFFA2"/>
</linearGradient>
</defs>
</svg>
