<svg width="56" height="56" viewBox="0 0 56 56" fill="none" xmlns="http://www.w3.org/2000/svg">
<rect width="56" height="56" rx="28" fill="#2C374B"/>
<path d="M37.7822 40.0537L33.8564 43.1504L29 33L32 28.5L37.7822 40.0537ZM42.7842 36.707L38.8584 39.8037L32.5 27.5L35.5 22.5L42.7842 36.707Z" fill="#27A0EF"/>
<path d="M16.4984 38.7997L13.1099 36.6741L20.4918 24.9303C22.0343 22.4761 24.7443 21.0366 27.6033 21.0969L16.4984 38.7997Z" fill="white" stroke="white"/>
<path d="M21.5662 42.0117L18.1785 39.8866L29.7601 21.525L34.1444 21.9235L21.5662 42.0117Z" fill="white" stroke="white"/>
<path d="M26.5 11.0205C27.4282 10.4847 28.5718 10.4847 29.5 11.0205L41.9541 18.2109C42.8823 18.7468 43.4541 19.7378 43.4541 20.8096V35.1904C43.4541 36.2622 42.8823 37.2532 41.9541 37.7891L29.5 44.9795C28.5718 45.5153 27.4282 45.5153 26.5 44.9795L14.0459 37.7891C13.1177 37.2532 12.5459 36.2622 12.5459 35.1904V20.8096C12.5459 19.7378 13.1177 18.7468 14.0459 18.2109L26.5 11.0205Z" stroke="#96BEDB" stroke-width="2"/>
</svg>
