<svg width="56" height="56" viewBox="0 0 56 56" fill="none" xmlns="http://www.w3.org/2000/svg">
<rect width="56" height="56" rx="28" fill="#F5BC00"/>
<path d="M22.7135 25.8277L28 20.5411L33.2893 25.8304L36.3654 22.7543L28 14.3889L19.6374 22.7516L22.7135 25.8277ZM14.3889 28L17.465 24.9239L20.5411 28L17.465 31.0761L14.3889 28ZM22.7135 30.1724L28 35.4589L33.2893 30.1696L36.3654 33.2444L28 41.6111L19.6374 33.2485L19.6333 33.2444L22.7135 30.1724ZM35.4589 28L38.535 24.9239L41.6111 28L38.535 31.0761L35.4589 28ZM31.1197 27.9973H31.1224V28L28 31.1224L24.8817 28.0055L24.8763 28L24.8817 27.9959L25.4275 27.4488L25.6929 27.1834L28 24.8776L31.1211 27.9987L31.1197 27.9973Z" fill="white"/>
</svg>
