<svg width="56" height="56" viewBox="0 0 56 56" fill="none" xmlns="http://www.w3.org/2000/svg">
<rect x="0.5" y="0.5" width="55" height="55" rx="27.5" fill="#FF0420"/>
<rect x="0.5" y="0.5" width="55" height="55" rx="27.5" stroke="white"/>
<path d="M19.0691 36.0006C17.4122 36.0006 16.0547 35.6107 14.9964 34.831C13.9521 34.0373 13.43 32.9096 13.43 31.4475C13.43 31.1412 13.4648 30.7652 13.5344 30.3196C13.7155 29.3172 13.9731 28.1127 14.3072 26.7064C15.254 22.8774 17.6977 20.9629 21.6381 20.9629C22.7103 20.9629 23.671 21.1439 24.5204 21.5059C25.3698 21.8539 26.0381 22.3831 26.5254 23.0932C27.0127 23.7894 27.2565 24.6248 27.2565 25.5995C27.2565 25.8919 27.2216 26.2609 27.1519 26.7064C26.9431 27.9456 26.6925 29.1501 26.4 30.3196C25.9127 32.2272 25.0703 33.6544 23.8729 34.6012C22.6754 35.5341 21.0742 36.0006 19.0691 36.0006ZM19.3615 32.993C20.1414 32.993 20.8027 32.7633 21.3457 32.3038C21.9027 31.8443 22.2995 31.1412 22.5362 30.1944C22.8564 28.8855 23.1002 27.7437 23.2673 26.7691C23.3229 26.4767 23.3507 26.1774 23.3507 25.8709C23.3507 24.6039 22.6893 23.9703 21.3667 23.9703C20.5868 23.9703 19.9185 24.2001 19.3615 24.6596C18.8186 25.1192 18.4287 25.8223 18.192 26.7691C17.9413 27.702 17.6907 28.8438 17.4401 30.1944C17.3844 30.4728 17.3565 30.7652 17.3565 31.0715C17.3565 32.3526 18.0249 32.993 19.3615 32.993ZM28.2154 35.7918C28.0622 35.7918 27.9438 35.743 27.8603 35.6455C27.7906 35.5341 27.7698 35.4089 27.7976 35.2696L30.6799 21.6939C30.7077 21.5407 30.7843 21.4154 30.9096 21.3179C31.0349 21.2205 31.1672 21.1717 31.3064 21.1717H36.8621C38.4076 21.1717 39.6468 21.4919 40.5797 22.1324C41.5266 22.773 42 23.6989 42 24.9102C42 25.2583 41.9583 25.6204 41.8747 25.9963C41.5266 27.5976 40.8235 28.7811 39.7652 29.5469C38.7209 30.3127 37.2867 30.6956 35.4627 30.6956H32.6431L31.6824 35.2696C31.6545 35.4228 31.5779 35.548 31.4527 35.6455C31.3274 35.743 31.195 35.7918 31.0559 35.7918H28.2154ZM35.609 27.8134C36.1937 27.8134 36.7019 27.6532 37.1336 27.333C37.5791 27.0128 37.8715 26.5533 38.0108 25.9545C38.0525 25.7178 38.0735 25.509 38.0735 25.328C38.0735 24.9242 37.9551 24.6178 37.7184 24.409C37.4816 24.1862 37.0779 24.0749 36.507 24.0749H34.0007L33.207 27.8134H35.609Z" fill="white"/>
</svg>
