<svg width="56" height="56" viewBox="0 0 56 56" fill="none" xmlns="http://www.w3.org/2000/svg">
<rect x="0.5" y="0.5" width="55" height="55" rx="27.5" fill="#8247E5"/>
<rect x="0.5" y="0.5" width="55" height="55" rx="27.5" stroke="white"/>
<path d="M34.9311 23.4995C34.4288 23.206 33.7759 23.206 33.2235 23.4995L29.3058 25.7498L26.6439 27.2174L22.7263 29.4676C22.2241 29.7611 21.5712 29.7611 21.0187 29.4676L17.9047 27.7065C17.4024 27.413 17.0509 26.8749 17.0509 26.2879V22.8146C17.0509 22.2276 17.3522 21.6894 17.9047 21.3959L20.9684 19.6838C21.4707 19.3902 22.1236 19.3902 22.6761 19.6838L25.7399 21.3959C26.2421 21.6894 26.5937 22.2276 26.5937 22.8146V25.0649L29.2556 23.5484V21.2981C29.2556 20.7111 28.9543 20.1729 28.4018 19.8794L22.7263 16.6507C22.2241 16.3572 21.5712 16.3572 21.0187 16.6507L15.2427 19.8794C14.6903 20.1729 14.3889 20.7111 14.3889 21.2981V27.8044C14.3889 28.3914 14.6903 28.9296 15.2427 29.2231L21.0187 32.4518C21.5209 32.7453 22.1739 32.7453 22.7263 32.4518L26.6439 30.2504L29.3058 28.7339L33.2235 26.5325C33.7257 26.239 34.3786 26.239 34.9311 26.5325L37.9949 28.2447C38.4971 28.5382 38.8487 29.0763 38.8487 29.6633V33.1366C38.8487 33.7237 38.5474 34.2617 37.9949 34.5553L34.9311 36.3164C34.4288 36.6099 33.7759 36.6099 33.2235 36.3164L30.1598 34.6042C29.6575 34.3107 29.3058 33.7725 29.3058 33.1855V30.9353L26.6439 32.4518V34.702C26.6439 35.289 26.9453 35.8272 27.4977 36.1207L33.2737 39.3494C33.7759 39.6429 34.4288 39.6429 34.9813 39.3494L40.7573 36.1207C41.2595 35.8272 41.6111 35.289 41.6111 34.702V28.1957C41.6111 27.6087 41.3097 27.0706 40.7573 26.7771L34.9311 23.4995Z" fill="white"/>
</svg>
