<svg width="128" height="128" viewBox="0 0 128 128" fill="none" xmlns="http://www.w3.org/2000/svg">
<rect width="128" height="128" fill="black"/>
<g clip-path="url(#clip0_189_2113)">
<path d="M64 107C87.7482 107 107 87.7482 107 64C107 40.2518 87.7482 21 64 21C40.2518 21 21 40.2518 21 64C21 87.7482 40.2518 107 64 107Z" fill="#0052FF"/>
<path d="M64.3611 51.3881C69.4237 51.3881 73.4398 54.5106 74.965 59.1541H85.1641C83.3164 49.2263 75.1254 42.5 64.4426 42.5C52.3111 42.5 42.8359 51.7089 42.8359 64.0412C42.8359 76.3734 52.0742 85.5 64.4426 85.5C74.8861 85.5 83.24 78.7737 85.0893 68.7636H74.9642C73.5179 73.4079 69.5052 76.6119 64.4392 76.6119C57.4492 76.6119 52.5504 71.2462 52.5504 64.0412C52.5538 56.7538 57.3736 51.3881 64.3611 51.3881Z" fill="white"/>
</g>
<defs>
<clipPath id="clip0_189_2113">
<rect width="86" height="86" fill="white" transform="translate(21 21)"/>
</clipPath>
</defs>
</svg>
