<svg width="128" height="128" viewBox="0 0 128 128" fill="none" xmlns="http://www.w3.org/2000/svg">
<rect width="128" height="128" fill="black"/>
<path d="M62.1172 48.1672C62.591 47.6796 63.2437 47.3817 63.968 47.3817C64.6921 47.3817 65.3358 47.6706 65.8006 48.1492L77.2981 59.7592C78.2278 60.6981 79.7387 60.6981 80.6686 59.7592L89.8147 50.5234C90.7444 49.5845 90.7444 48.0588 89.8147 47.1198L70.6552 27.7457C66.972 24.0262 60.9908 24.0262 57.3073 27.7457L38.1301 47.1108C37.2004 48.0498 37.2004 49.5755 38.1301 50.5144L47.2762 59.7502C48.2061 60.6891 49.717 60.6891 50.6467 59.7502L62.1262 48.1582L62.1172 48.1672Z" fill="#FF6521"/>
<path d="M102.359 59.7689L98.202 55.5709C97.2721 54.632 95.7612 54.632 94.8313 55.5709L65.802 84.8848C65.337 85.3544 64.6845 85.6523 63.9692 85.6523C63.2539 85.6523 62.6102 85.3634 62.1363 84.8938L33.1158 55.5709C32.186 54.632 30.6751 54.632 29.7453 55.5709L25.588 59.7689C21.9046 63.4884 21.9046 69.5281 25.588 73.2478L57.2995 105.27C60.983 108.99 66.9642 108.99 70.6476 105.27L102.359 73.2478C106.043 69.5281 106.043 63.4884 102.359 59.7689Z" fill="white"/>
</svg>
