<svg width="128" height="128" viewBox="0 0 128 128" fill="none" xmlns="http://www.w3.org/2000/svg">
<g clip-path="url(#clip0_123_2089)">
<rect width="128" height="128" fill="white"/>
<path d="M102.427 23.0376L69.1017 47.5214L75.2909 33.0766L102.427 23.0376Z" fill="#E17726" stroke="#E17726" stroke-linecap="round" stroke-linejoin="round"/>
<path d="M25.5726 23.0376L58.5951 47.7532L52.7091 33.0766L25.5726 23.0376Z" fill="#E27625" stroke="#E27625" stroke-linecap="round" stroke-linejoin="round"/>
<path d="M90.4476 79.7959L81.5823 93.2486L100.552 98.415L105.973 80.0929L90.4476 79.7959Z" fill="#E27625" stroke="#E27625" stroke-linecap="round" stroke-linejoin="round"/>
<path d="M22.0594 80.0929L27.4478 98.415L46.4176 93.2486L37.5853 79.7959L22.0594 80.0929Z" fill="#E27625" stroke="#E27625" stroke-linecap="round" stroke-linejoin="round"/>
<path d="M45.3795 57.0643L40.0933 64.9852L58.8983 65.8142L58.2622 45.7656L45.3795 57.0643Z" fill="#E27625" stroke="#E27625" stroke-linecap="round" stroke-linejoin="round"/>
<path d="M82.6205 57.0646L69.5367 45.5342L69.1017 65.8144L87.9067 64.9855L82.6205 57.0646Z" fill="#E27625" stroke="#E27625" stroke-linecap="round" stroke-linejoin="round"/>
<path d="M46.4177 93.2485L57.7614 87.7786L47.9898 80.2266L46.4177 93.2485Z" fill="#E27625" stroke="#E27625" stroke-linecap="round" stroke-linejoin="round"/>
<path d="M70.2386 87.7786L81.5823 93.2485L80.0103 80.2266L70.2386 87.7786Z" fill="#E27625" stroke="#E27625" stroke-linecap="round" stroke-linejoin="round"/>
<path d="M81.5823 93.2487L70.2386 87.7788L71.1417 95.1024L71.0428 98.1833L81.5823 93.2487Z" fill="#D5BFB2" stroke="#D5BFB2" stroke-linecap="round" stroke-linejoin="round"/>
<path d="M46.4177 93.2487L56.9572 98.1833L56.8913 95.1024L57.7614 87.7788L46.4177 93.2487Z" fill="#D5BFB2" stroke="#D5BFB2" stroke-linecap="round" stroke-linejoin="round"/>
<path d="M57.1582 75.3866L47.7228 72.6386L54.38 69.623L57.1582 75.3866Z" fill="#233447" stroke="#233447" stroke-linecap="round" stroke-linejoin="round"/>
<path d="M70.8418 75.3866L73.62 69.623L80.3102 72.6386L70.8418 75.3866Z" fill="#233447" stroke="#233447" stroke-linecap="round" stroke-linejoin="round"/>
<path d="M46.4177 93.2486L48.0556 79.7959L37.5853 80.0929L46.4177 93.2486Z" fill="#CC6228" stroke="#CC6228" stroke-linecap="round" stroke-linejoin="round"/>
<path d="M79.9443 79.7959L81.5823 93.2486L90.4476 80.0929L79.9443 79.7959Z" fill="#CC6228" stroke="#CC6228" stroke-linecap="round" stroke-linejoin="round"/>
<path d="M87.9067 64.9854L69.1017 65.8143L70.8418 75.3866L73.62 69.623L80.3102 72.6386L87.9067 64.9854Z" fill="#CC6228" stroke="#CC6228" stroke-linecap="round" stroke-linejoin="round"/>
<path d="M47.7227 72.6386L54.3799 69.623L57.1582 75.3866L58.8983 65.8143L40.0933 64.9854L47.7227 72.6386Z" fill="#CC6228" stroke="#CC6228" stroke-linecap="round" stroke-linejoin="round"/>
<path d="M40.0933 64.9854L47.9897 80.2266L47.7227 72.6386L40.0933 64.9854Z" fill="#E27525" stroke="#E27525" stroke-linecap="round" stroke-linejoin="round"/>
<path d="M80.3102 72.6386L80.0103 80.2266L87.9066 64.9854L80.3102 72.6386Z" fill="#E27525" stroke="#E27525" stroke-linecap="round" stroke-linejoin="round"/>
<path d="M58.8983 65.8145L57.1582 75.3867L59.3663 86.6854L59.8343 71.8098L58.8983 65.8145Z" fill="#E27525" stroke="#E27525" stroke-linecap="round" stroke-linejoin="round"/>
<path d="M69.1017 65.8145L68.1987 71.7771L68.6337 86.6854L70.8418 75.3867L69.1017 65.8145Z" fill="#E27525" stroke="#E27525" stroke-linecap="round" stroke-linejoin="round"/>
<path d="M70.8418 75.3867L68.6337 86.6854L70.2386 87.7787L80.0103 80.2266L80.3102 72.6387L70.8418 75.3867Z" fill="#F5841F" stroke="#F5841F" stroke-linecap="round" stroke-linejoin="round"/>
<path d="M47.7228 72.6387L47.9897 80.2266L57.7613 87.7787L59.3663 86.6854L57.1582 75.3867L47.7228 72.6387Z" fill="#F5841F" stroke="#F5841F" stroke-linecap="round" stroke-linejoin="round"/>
<path d="M71.0429 98.1832L71.1417 95.1023L70.3079 94.3745H57.6922L56.8913 95.1023L56.9572 98.1832L46.4177 93.2485L50.099 96.2282L57.5933 101.365H70.4068L77.9011 96.2282L81.5824 93.2485L71.0429 98.1832Z" fill="#C0AC9D" stroke="#C0AC9D" stroke-linecap="round" stroke-linejoin="round"/>
<path d="M70.2386 87.7784L68.6337 86.6851H59.3663L57.7613 87.7784L56.8912 95.102L57.6921 94.3742H70.3079L71.1417 95.102L70.2386 87.7784Z" fill="#161616" stroke="#161616" stroke-linecap="round" stroke-linejoin="round"/>
<path d="M103.831 49.1141L106.642 35.5961L102.427 23.0376L70.2386 46.6957L82.6204 57.0643L100.117 62.136L103.966 57.6616L102.292 56.4703L104.968 54.0487L102.928 52.4593L105.604 50.4391L103.831 49.1141Z" fill="#763E1A" stroke="#763E1A" stroke-linecap="round" stroke-linejoin="round"/>
<path d="M21.3575 35.5961L24.2017 49.1141L22.3957 50.4391L25.0717 52.4593L23.0317 54.0487L25.7078 56.4703L24.0336 57.6616L27.8829 62.136L45.3796 57.0643L57.7614 46.6957L25.5727 23.0376L21.3575 35.5961Z" fill="#763E1A" stroke="#763E1A" stroke-linecap="round" stroke-linejoin="round"/>
<path d="M100.117 62.1362L82.6204 57.0645L87.9066 64.9853L80.0103 80.2265L90.4476 80.0927H105.973L100.117 62.1362Z" fill="#F5841F" stroke="#F5841F" stroke-linecap="round" stroke-linejoin="round"/>
<path d="M45.3795 57.0645L27.8829 62.1362L22.0594 80.0927H37.5853L47.9897 80.2265L40.0933 64.9853L45.3795 57.0645Z" fill="#F5841F" stroke="#F5841F" stroke-linecap="round" stroke-linejoin="round"/>
<path d="M69.1017 65.8142L70.2387 46.6958L75.2909 33.0767H52.7091L57.7613 46.6958L58.8983 65.8142L59.3334 71.8422L59.3663 86.6852H68.6337L68.6667 71.8422L69.1017 65.8142Z" fill="#F5841F" stroke="#F5841F" stroke-linecap="round" stroke-linejoin="round"/>
</g>
<defs>
<clipPath id="clip0_123_2089">
<rect width="128" height="128" fill="white"/>
</clipPath>
</defs>
</svg>
