<svg width="128" height="128" viewBox="0 0 128 128" fill="none" xmlns="http://www.w3.org/2000/svg">
<rect width="128" height="128" fill="#12FF80"/>
<path d="M96.4317 63.9922H88.5916C86.2428 63.9922 84.3542 65.8788 84.3542 68.1899V79.4625C84.3542 81.7893 82.4497 83.6602 80.1167 83.6602H48.8992C46.5503 83.6602 44.6617 85.5468 44.6617 87.8579V95.6403C44.6617 97.9671 46.5662 99.838 48.8992 99.838H81.9101C84.2589 99.838 86.1158 97.9514 86.1158 95.6403V89.4144C86.1158 87.0876 88.0203 85.4525 90.3533 85.4525H96.4317C98.7806 85.4525 100.669 83.5659 100.669 81.2548V68.1585C100.669 65.8159 98.7647 63.9922 96.4317 63.9922Z" fill="black"/>
<path d="M44.6617 48.5531C44.6617 46.2263 46.5661 44.3554 48.8991 44.3554H80.0849C82.4337 44.3554 84.3223 42.4688 84.3223 40.1577V32.3911C84.3223 30.0643 82.4179 28.1934 80.0849 28.1934H47.0899C44.741 28.1934 42.8524 30.08 42.8524 32.3911V38.3811C42.8524 40.7079 40.9479 42.5788 38.615 42.5788H32.5841C30.2353 42.5788 28.3467 44.4655 28.3467 46.7766V59.8886C28.3467 62.2154 30.2512 63.992 32.6 63.992H40.4401C42.7889 63.992 44.6775 62.1054 44.6775 59.7943L44.6617 48.5531Z" fill="black"/>
<path d="M60.8022 55.8325H68.3407C70.8007 55.8325 72.7845 57.8135 72.7845 60.2346V67.7025C72.7845 70.1394 70.7848 72.1046 68.3407 72.1046H60.8022C58.3422 72.1046 56.3584 70.1237 56.3584 67.7025V60.2346C56.3584 57.7978 58.3581 55.8325 60.8022 55.8325Z" fill="black"/>
</svg>
