<svg width="56" height="56" viewBox="0 0 56 56" fill="none" xmlns="http://www.w3.org/2000/svg">
<rect x="1.5" y="1.5" width="53" height="53" rx="26.5" fill="white"/>
<rect x="1.5" y="1.5" width="53" height="53" rx="26.5" stroke="#0052FF" stroke-width="3"/>
<path d="M37.623 25.3329C38.0515 22.4728 35.8722 20.9349 32.8947 19.9087L33.8608 16.0332L31.5028 15.4465L30.5612 19.2196C29.9417 19.064 29.3058 18.9194 28.6713 18.7747L29.6197 14.9771L27.2617 14.3889L26.2955 18.263C25.7824 18.1456 25.2776 18.031 24.789 17.9082L24.7918 17.8959L21.5386 17.084L20.9109 19.603C20.9109 19.603 22.6616 20.0042 22.6248 20.0288C23.58 20.2676 23.7519 20.8994 23.7233 21.4015L22.6234 25.816C22.6889 25.8324 22.7735 25.8569 22.869 25.8938L22.6193 25.8324L21.0773 32.0167C20.96 32.306 20.6639 32.7413 19.9952 32.5762C20.0198 32.6103 18.2813 32.1491 18.2813 32.1491L17.1105 34.8482L20.1808 35.6138C20.7512 35.757 21.3107 35.9072 21.8606 36.0477L20.8849 39.9668L23.2416 40.5536L24.2077 36.6781C24.8518 36.8514 25.4768 37.0125 26.0881 37.1653L25.1247 41.0244L27.4827 41.6111L28.4584 37.7002C32.4812 38.4617 35.5052 38.1546 36.7783 34.5166C37.8045 31.5882 36.7278 29.8975 34.6114 28.7963C36.1533 28.4415 37.3132 27.4276 37.623 25.3329ZM32.2329 32.89C31.5055 35.8198 26.5725 34.2355 24.9732 33.8384L26.2696 28.6462C27.8689 29.046 32.9957 29.8361 32.2329 32.89ZM32.9629 25.2906C32.2984 27.9557 28.1937 26.6006 26.8632 26.269L28.0368 21.5612C29.3672 21.8928 33.6561 22.511 32.9629 25.2906Z" fill="#0052FF"/>
</svg>
