<svg width="56" height="56" viewBox="0 0 56 56" fill="none" xmlns="http://www.w3.org/2000/svg">
<rect width="56" height="56" rx="28" fill="#F5AC37"/>
<path fill-rule="evenodd" clip-rule="evenodd" d="M17.6512 17.1111H27.0385C32.748 17.1111 37.0764 20.1428 38.6868 24.5528H41.611V27.2192H39.3029C39.3473 27.6404 39.3702 28.0702 39.3702 28.5058V28.5717C39.3702 29.0617 39.3415 29.546 39.2842 30.0188H41.611V32.6837H38.6309C36.9789 37.0335 32.685 40.0351 27.04 40.0351H17.6512V32.6837H14.3888V30.0188H17.6512V27.2192H14.3888V24.5543H17.6512V17.1111ZM20.2745 32.6837V37.6439H27.0371C31.2121 37.6439 34.3126 35.6566 35.7554 32.6837H20.2745ZM36.5591 30.0188H20.2745V27.2192H36.5649C36.6236 27.659 36.6551 28.1104 36.6551 28.5717V28.6362C36.6551 29.1076 36.6222 29.5675 36.5591 30.0173V30.0188ZM27.04 19.4967C31.2322 19.4967 34.3427 21.5369 35.7769 24.5514H20.2745V19.4981H27.0371L27.04 19.4967Z" fill="white"/>
</svg>
