<svg width="20" height="20" viewBox="0 0 20 20" fill="none" xmlns="http://www.w3.org/2000/svg">
<rect width="20" height="20" rx="10" fill="#F0F0F0"/>
<path fill-rule="evenodd" clip-rule="evenodd" d="M4 5.55166C4.00229 5.24809 4.26734 5.00241 4.5952 5H15.4048C15.7336 5 16 5.24722 16 5.55166V14.4483C15.9977 14.7519 15.7327 14.9976 15.4048 15H4.5952C4.2664 14.9997 4 14.7528 4 14.4483V5.55166ZM14.8001 6.11113H5.20007V13.8889L10.7753 8.72557C11.0096 8.5087 11.3894 8.5087 11.6237 8.72557L14.8001 11.6722V6.11113ZM6.39993 8.33331C6.39993 8.94696 6.93719 9.44442 7.59993 9.44442C8.26267 9.44442 8.79993 8.94696 8.79993 8.33331C8.79993 7.71966 8.26267 7.2222 7.59993 7.2222C6.93719 7.2222 6.39993 7.71966 6.39993 8.33331Z" fill="#555555"/>
</svg>
