<svg width="56" height="56" viewBox="0 0 56 56" fill="none" xmlns="http://www.w3.org/2000/svg">
<rect x="0.5" y="0.5" width="55" height="55" rx="27.5" fill="#779FFA"/>
<rect x="0.5" y="0.5" width="55" height="55" rx="27.5" stroke="white"/>
<path opacity="0.5" d="M55 32.5001C58.5 -8.5 -1.50001 -10.4999 0.99999 32.5L2.49999 38.0002L4.99999 42.5001L8.49999 47.5001L13 51.0001L19 54.0001L25 55.5001L31.5 55.0001L38 54.0001L47 48.0001L51 42.5001L53 39.0002L54.5 35.0002L55 32.5001Z" fill="url(#paint0_linear_150_37)"/>
<path d="M17 28.5L27.5 18L38 28.5" stroke="white" stroke-width="9"/>
<path d="M15.7227 43V35.2742H21.1096V36.7907H17.59V38.3751H20.8343V39.8954H17.59V41.4835H21.1096V43H15.7227ZM29.1661 35.2742H31.0297V40.2575C31.0297 40.8334 30.8926 41.3351 30.6185 41.7627C30.3444 42.1877 29.9621 42.5171 29.4717 42.751C28.9813 42.9824 28.4117 43.0981 27.7628 43.0981C27.1064 43.0981 26.533 42.9824 26.0426 42.751C25.5522 42.5171 25.1712 42.1877 24.8996 41.7627C24.628 41.3351 24.4922 40.8334 24.4922 40.2575V35.2742H26.3595V40.0953C26.3595 40.3619 26.4173 40.5995 26.533 40.8083C26.6512 41.017 26.816 41.1805 27.0272 41.2987C27.2385 41.4169 27.4837 41.476 27.7628 41.476C28.042 41.476 28.2859 41.4169 28.4947 41.2987C28.7059 41.1805 28.8706 41.017 28.9888 40.8083C29.107 40.5995 29.1661 40.3619 29.1661 40.0953V35.2742ZM34.4132 43V35.2742H37.6046C38.183 35.2742 38.6822 35.3786 39.1022 35.5873C39.5247 35.7935 39.8504 36.0903 40.0792 36.4776C40.3081 36.8624 40.4225 37.3188 40.4225 37.847C40.4225 38.3826 40.3056 38.8378 40.0717 39.2126C39.8378 39.5848 39.5058 39.8689 39.0758 40.0651C38.6457 40.2588 38.1365 40.3556 37.548 40.3556H35.5298V38.8844H37.2009C37.4826 38.8844 37.7177 38.8479 37.9064 38.775C38.0975 38.6995 38.2421 38.5863 38.3402 38.4355C38.4383 38.282 38.4873 38.0859 38.4873 37.847C38.4873 37.608 38.4383 37.4106 38.3402 37.2547C38.2421 37.0963 38.0975 36.9781 37.9064 36.9001C37.7152 36.8196 37.4801 36.7794 37.2009 36.7794H36.2805V43H34.4132ZM38.7627 39.4691L40.6866 43H38.6495L36.7633 39.4691H38.7627Z" fill="#1F2333"/>
<defs>
<linearGradient id="paint0_linear_150_37" x1="28" y1="22.8843" x2="28" y2="55.5" gradientUnits="userSpaceOnUse">
<stop stop-color="white"/>
<stop offset="1" stop-color="white" stop-opacity="0"/>
</linearGradient>
</defs>
</svg>
