<svg width="56" height="56" viewBox="0 0 56 56" fill="none" xmlns="http://www.w3.org/2000/svg">
<rect x="4" y="4" width="48" height="48" rx="24" fill="white"/>
<rect x="4" y="4" width="48" height="48" rx="24" stroke="black" stroke-width="8"/>
<path d="M30.1974 34.7665C27.6906 34.7665 25.4945 33.4275 24.3017 31.4354H32.1904V28.6747H23.3849C23.3629 28.4514 23.3511 28.2277 23.3511 27.9992C23.3511 27.7729 23.3629 27.5464 23.3849 27.3261H32.1906V24.5648H24.3018C25.4946 22.5729 27.6906 21.2343 30.1975 21.2343C32.5934 21.2343 34.8495 22.5072 36.085 24.5548L39.2239 23.3641C37.4042 20.3462 33.9458 18.4727 30.1974 18.4727C27.3796 18.4727 24.7495 19.4945 22.7916 21.3525C21.8068 22.2872 21.0545 23.3778 20.5598 24.5648H16.7761V27.326H19.8968C19.88 27.5478 19.8714 27.7743 19.8714 27.9991C19.8714 28.2263 19.88 28.4499 19.8968 28.6746H16.7761V31.4354H20.5598C21.0545 32.6222 21.8068 33.7116 22.7916 34.6454C24.7496 36.5036 27.3796 37.5273 30.1975 37.5273C33.9459 37.5273 37.4042 35.6541 39.2239 32.6362L36.085 31.4433C34.8494 33.4935 32.5933 34.7665 30.1974 34.7665Z" fill="#E70028"/>
<mask id="mask0_311_5872" style="mask-type:alpha" maskUnits="userSpaceOnUse" x="0" y="0" width="56" height="56">
<circle cx="28" cy="28" r="24" stroke="black" stroke-width="8"/>
</mask>
<g mask="url(#mask0_311_5872)">
<rect x="44.3333" y="18.4727" width="15.9667" height="19.0547" fill="white"/>
<rect x="47.8239" y="25.0133" width="12.4761" height="5.62231" fill="#E70028"/>
</g>
</svg>
