<svg width="48" height="48" viewBox="0 0 48 48" fill="none" xmlns="http://www.w3.org/2000/svg">
<rect width="48" height="48" rx="24" fill="#2775CA"/>
<path d="M24 10C31.7328 10 38 16.2672 38 24C38 27.713 36.5249 31.2739 33.8994 33.8994C31.2739 36.5249 27.713 38 24 38C16.2672 38 10 31.7328 10 24C10 16.2672 16.2672 10 24 10ZM27.1689 14.0869C27.0206 14.087 26.8784 14.1461 26.7734 14.251C26.6685 14.3559 26.6095 14.4981 26.6094 14.6465V14.8252C26.6142 15.0549 26.6856 15.2785 26.8145 15.4688C26.9433 15.6589 27.1244 15.8079 27.3359 15.8975C28.953 16.5536 30.3377 17.6776 31.3125 19.125C32.2873 20.5725 32.8085 22.2783 32.8086 24.0234C32.8086 25.7687 32.2873 27.4743 31.3125 28.9219C30.3376 30.3695 28.9531 31.4932 27.3359 32.1494C27.1283 32.2399 26.9508 32.3884 26.8242 32.5762C26.6977 32.7639 26.6272 32.9837 26.6211 33.21V33.4131C26.6222 33.5013 26.6446 33.5879 26.6855 33.666C26.7265 33.7443 26.7854 33.8122 26.8574 33.8633C26.9294 33.9143 27.0124 33.9471 27.0996 33.96C27.187 33.9728 27.2766 33.9657 27.3604 33.9375C29.4412 33.2382 31.2496 31.9021 32.5303 30.1191C33.811 28.336 34.499 26.1954 34.4971 24C34.4932 21.8073 33.8011 19.6711 32.5186 17.8926C31.236 16.114 29.427 14.7829 27.3477 14.0869H27.1689ZM20.6875 14.0625C18.5976 14.7537 16.779 16.0863 15.4893 17.8701C14.1995 19.6539 13.5043 21.7988 13.5029 24C13.5043 26.1946 14.195 28.3334 15.4775 30.1143C16.7603 31.8952 18.571 33.2282 20.6523 33.9248H20.8184C20.9605 33.9248 21.0977 33.8691 21.1982 33.7686C21.2988 33.668 21.3545 33.5309 21.3545 33.3887V33.1387C21.3549 32.917 21.2899 32.7001 21.167 32.5156C21.044 32.3312 20.8688 32.1875 20.6641 32.1025C19.0432 31.4483 17.6544 30.324 16.6768 28.875C15.6991 27.4261 15.1768 25.7176 15.1768 23.9697C15.1769 22.222 15.6992 20.5142 16.6768 19.0654C17.6544 17.6165 19.0432 16.4921 20.6641 15.8379C20.8677 15.7551 21.042 15.6138 21.165 15.4316C21.2881 15.2491 21.3541 15.0336 21.3545 14.8135V14.54C21.3553 14.4596 21.3373 14.3793 21.3008 14.3076C21.2644 14.2361 21.2108 14.1746 21.1455 14.1279C21.0801 14.0812 21.0044 14.0503 20.9248 14.0391C20.8451 14.0278 20.7634 14.0357 20.6875 14.0625ZM24.9785 19C23.7234 19.0001 22.5518 19.5367 21.6797 20.5117C21.2411 21.0022 20.9059 21.5744 20.6855 22.1973H19V23.6465H20.3906C20.3832 23.7628 20.3789 23.8821 20.3789 24C20.3789 24.119 20.3832 24.2367 20.3906 24.3545H19V25.8027H20.6855C20.9059 26.4255 21.2411 26.9973 21.6797 27.4873C22.5518 28.4624 23.7234 28.9999 24.9785 29C26.6484 29 28.1894 28.0164 29 26.4326L27.6016 25.8066C27.0512 26.8826 26.0459 27.5508 24.9785 27.5508C23.862 27.5506 22.8838 26.8481 22.3525 25.8027H25.8672V24.3545H21.9443C21.9346 24.2374 21.9287 24.1198 21.9287 24C21.9287 23.8813 21.9345 23.7621 21.9443 23.6465H25.8672V22.1973H22.3525C22.8838 21.152 23.8619 20.4494 24.9785 20.4492C26.0459 20.4492 27.0512 21.1178 27.6016 22.1924L29 21.5674C28.1894 19.9835 26.6483 19 24.9785 19Z" fill="white"/>
</svg>
