<svg width="56" height="57" viewBox="0 0 56 57" fill="none" xmlns="http://www.w3.org/2000/svg">
<g clip-path="url(#clip0_261_9129)">
<path d="M56 28.8911C56 44.3551 43.464 56.8911 28 56.8911C12.536 56.8911 0 44.3551 0 28.8911C0 13.4271 12.536 0.891113 28 0.891113C43.464 0.891113 56 13.4271 56 28.8911Z" fill="white"/>
<path d="M47.4091 14.3183C42.6745 8.15831 36.5018 4.51831 26.8418 4.51831C15.3873 4.51831 4.95091 15.0565 4.95091 26.3074C4.95091 34.1347 9.39273 37.8892 14.2927 37.8892C18.1851 38.0118 21.7853 35.8328 23.4818 32.3274C23.5437 32.2101 23.5403 32.0691 23.4729 31.9549C23.4054 31.8407 23.2835 31.7697 23.1509 31.7674H16.5455C16.2833 31.7605 16.0745 31.546 16.0745 31.2838V26.4983C16.0745 26.2361 16.2833 26.0216 16.5455 26.0147H25.4545C25.8147 26.0134 26.1398 25.7984 26.2818 25.4674C30.1764 16.5583 37.0745 14.6238 41.0327 14.3056C43.065 14.1423 45.1103 14.3055 47.0909 14.7892C47.2173 14.8356 47.359 14.7898 47.4343 14.6783C47.5097 14.5668 47.4993 14.4182 47.4091 14.3183Z" fill="url(#paint0_linear_261_9129)"/>
<path d="M8.64388 43.687C13.4493 49.8718 19.6889 53.4037 29.3071 53.38C40.7448 53.2829 51.1693 42.6762 51.1035 31.4047C51.0487 23.5655 46.6046 19.8049 41.6598 19.8591C37.7635 19.769 34.1776 21.9757 32.5023 25.4946C32.4431 25.6145 32.4518 25.7569 32.5252 25.8687C32.5985 25.9805 32.7256 26.0451 32.8592 26.0386L39.4351 26.0035C39.6999 26.0022 39.9161 26.215 39.9189 26.4798L39.9561 31.2801C39.9573 31.4077 39.9065 31.5304 39.8152 31.6196C39.7239 31.7089 39.6002 31.7571 39.4726 31.753L30.5795 31.8144C30.2212 31.8169 29.8976 32.0292 29.7527 32.357C25.9124 41.3046 19.0084 43.2826 15.043 43.6434C13.0115 43.8156 10.9655 43.6606 8.98318 43.1842C8.84825 43.1345 8.69683 43.1834 8.61639 43.3026C8.53596 43.4218 8.5473 43.5805 8.64388 43.687Z" fill="url(#paint1_linear_261_9129)"/>
</g>
<defs>
<linearGradient id="paint0_linear_261_9129" x1="4.95091" y1="21.2038" x2="47.4727" y2="21.2038" gradientUnits="userSpaceOnUse">
<stop offset="1e-05" stop-color="#1B75BA"/>
<stop offset="0.17" stop-color="#2967B2"/>
<stop offset="0.72" stop-color="#543D99"/>
<stop offset="1" stop-color="#652D8F"/>
</linearGradient>
<linearGradient id="paint1_linear_261_9129" x1="13.8941" y1="51.6655" x2="51.2749" y2="27.1367" gradientUnits="userSpaceOnUse">
<stop offset="1e-05" stop-color="#D81C5C"/>
<stop offset="1" stop-color="#ED4036"/>
</linearGradient>
<clipPath id="clip0_261_9129">
<rect width="56" height="56" fill="white" transform="translate(0 0.891113)"/>
</clipPath>
</defs>
</svg>
