<svg width="57" height="56" viewBox="0 0 57 56" fill="none" xmlns="http://www.w3.org/2000/svg">
<rect x="1" width="56" height="56" rx="28" fill="#162E2F"/>
<path d="M31.8333 15V19V20.1795L37.0295 23.1795L32.8333 27.3756L37.0295 28.5V32L31.8333 35V41.5H5.5L4.96394 40.6066C4.32264 39.5377 3.77981 38.4128 3.34215 37.2457C2.78261 35.7536 2.39834 34.2016 2.19707 32.6208L2.07003 31.623C1.69266 28.6591 1.81338 25.653 2.42718 22.7289C2.80803 20.9145 3.37605 19.1446 4.12211 17.4474L5.19797 15H31.8333Z" fill="#C4FDF2" fill-opacity="0.3"/>
<path d="M37.9136 22.7696C37.5851 19.8962 35.0814 18.9766 31.9396 18.7584L31.8668 14.765L29.4373 14.8103L29.5073 18.6985C28.8686 18.709 28.2169 18.7344 27.5666 18.7594L27.4969 14.8457L25.067 14.8897L25.1394 18.8818C24.6135 18.9016 24.0961 18.9219 23.5925 18.9301L23.5919 18.9175L20.2395 18.9777L20.2871 21.5734C20.2871 21.5734 22.082 21.5064 22.0528 21.5397C23.0372 21.5224 23.3672 22.0879 23.4699 22.5803L23.5534 27.129C23.6209 27.1278 23.709 27.1296 23.8108 27.1404L23.5537 27.1459L23.6696 33.5185C23.6313 33.8283 23.4583 34.3256 22.7697 34.3396C22.8023 34.3662 21.0037 34.372 21.0037 34.372L20.5735 37.2825L23.7373 37.225C24.3253 37.2153 24.9046 37.2151 25.4722 37.2081L25.5471 41.2461L27.9752 41.2012L27.9025 37.2078C28.5695 37.208 29.2148 37.2013 29.8449 37.1902L29.916 41.1671L32.3455 41.1218L32.2728 37.0916C36.3554 36.7829 39.196 35.7016 39.4814 31.8579C39.7124 28.7635 38.2338 27.4101 35.904 26.8959C37.3011 26.1531 38.1581 24.8729 37.9136 22.7696ZM34.6695 31.4667C34.7275 34.4848 29.5523 34.2351 27.9048 34.2667L27.8092 28.9159C29.4574 28.8869 34.6136 28.3194 34.6695 31.4667ZM33.4023 23.9382C33.4521 26.6844 29.1364 26.4411 27.7655 26.4662L27.677 21.6151C29.0479 21.59 33.3503 21.0739 33.4023 23.9382Z" fill="#C4FDF2"/>
</svg>
