<svg width="57" height="56" viewBox="0 0 57 56" fill="none" xmlns="http://www.w3.org/2000/svg">
<rect x="1.5" y="0.5" width="55" height="55" rx="27.5" fill="#162E2F"/>
<rect x="1.5" y="0.5" width="55" height="55" rx="27.5" stroke="white"/>
<path d="M31.8333 15V19V20.1795L37.0295 23.1795L32.8333 27.3756L37.0295 28.5V32L31.8333 35V41.5H5.5L4.96394 40.6066C4.32264 39.5377 3.77981 38.4128 3.34215 37.2457C2.78261 35.7536 2.39834 34.2016 2.19707 32.6208L2.07003 31.623C1.69266 28.6591 1.81338 25.653 2.42718 22.7289C2.80803 20.9145 3.37605 19.1446 4.12211 17.4474L5.19797 15H31.8333Z" fill="#C4FDF2" fill-opacity="0.3"/>
<path d="M37.9136 22.7696C37.5851 19.8962 35.0814 18.9766 31.9396 18.7583L31.8668 14.7649L29.4373 14.8102L29.5073 18.6984C28.8686 18.709 28.2169 18.7343 27.5666 18.7593L27.4969 14.8456L25.067 14.8896L25.1394 18.8817C24.6135 18.9015 24.0961 18.9219 23.5925 18.93L23.5919 18.9175L20.2395 18.9777L20.2871 21.5733C20.2871 21.5733 22.082 21.5064 22.0528 21.5396C23.0372 21.5224 23.3672 22.0879 23.4699 22.5803L23.5534 27.1289C23.6209 27.1277 23.709 27.1295 23.8108 27.1403L23.5537 27.1458L23.6696 33.5184C23.6313 33.8283 23.4583 34.3255 22.7697 34.3396C22.8023 34.3661 21.0037 34.3719 21.0037 34.3719L20.5735 37.2824L23.7373 37.2249C24.3253 37.2152 24.9046 37.215 25.4722 37.208L25.5471 41.246L27.9752 41.2011L27.9025 37.2077C28.5695 37.2079 29.2148 37.2012 29.8449 37.1901L29.916 41.167L32.3455 41.1217L32.2728 37.0916C36.3554 36.7829 39.196 35.7016 39.4814 31.8578C39.7124 28.7634 38.2338 27.41 35.904 26.8958C37.3011 26.153 38.1581 24.8728 37.9136 22.7696ZM34.6695 31.4666C34.7275 34.4848 29.5523 34.235 27.9048 34.2666L27.8092 28.9158C29.4574 28.8869 34.6136 28.3193 34.6695 31.4666ZM33.4023 23.9381C33.4521 26.6843 29.1364 26.441 27.7655 26.4661L27.677 21.615C29.0479 21.5899 33.3503 21.0738 33.4023 23.9381Z" fill="#C4FDF2"/>
</svg>
