<svg width="56" height="56" viewBox="0 0 56 56" fill="none" xmlns="http://www.w3.org/2000/svg">
<rect width="56" height="56" rx="28" fill="#006AFE"/>
<path d="M35.0449 12.0444C38.7325 12.0445 41.7217 15.0346 41.7217 18.7222C41.7215 21.7005 39.753 24.2227 37.0529 25.0826C35.755 25.496 34.3777 25.6991 33.1455 26.2798V26.2798C31.5789 27.0186 31.6282 29.2647 33.2256 29.9341V29.9341C34.4291 30.3753 35.7279 30.5123 36.9562 30.8787C39.7123 31.7007 41.7215 34.2546 41.7217 37.2778C41.7217 40.9654 38.7325 43.9555 35.0449 43.9556C31.3573 43.9556 28.3682 40.9655 28.3682 37.2778C28.3682 36.759 28.4275 36.2542 28.5395 35.7695C28.8259 34.531 29.3229 33.3349 29.4893 32.0747V32.0747C29.7178 30.3375 27.7611 29.1675 26.3389 30.1909L24.7387 31.3416C24.7377 31.3423 24.7363 31.3416 24.7363 31.3403V31.3403C24.62 31.505 21.4255 34.6772 18.9551 34.6772C15.2678 34.677 12.2786 31.6878 12.2783 28.0005C12.2783 24.313 15.2676 21.323 18.9551 21.3228C20.7701 21.3228 22.4162 22.0472 23.6198 23.2225C24.5873 24.1672 25.4586 25.2433 26.6074 25.9565V25.9565C28.1429 26.9098 30.0547 25.4989 29.5967 23.7505V23.7505C29.233 22.3621 28.615 21.029 28.4263 19.6062C28.388 19.317 28.3682 19.0219 28.3682 18.7222C28.3682 15.0345 31.3573 12.0444 35.0449 12.0444Z" fill="white"/>
</svg>
