<svg width="56" height="56" viewBox="0 0 56 56" fill="none" xmlns="http://www.w3.org/2000/svg">
<rect x="0.5" y="0.5" width="55" height="55" rx="27.5" fill="#2AC8A5"/>
<rect x="0.5" y="0.5" width="55" height="55" rx="27.5" stroke="white"/>
<path opacity="0.5" d="M55 32.5001C35.4 15.3001 10.5 24.8333 1 32.5L2.5 38.0001L5 42.5001L8.5 47.5001L13 51.0001L19 54.0001L25 55.5001L31.5 55.0001L38 54.0001L47 48.0001L51 42.5001L53 39.0001L54.5 35.0001L55 32.5001Z" fill="url(#paint0_linear_140_3576)"/>
<path d="M17 28.5L27.5 18L38 28.5" stroke="white" stroke-width="9"/>
<path d="M32 7L32.5449 9.96666C32.8708 11.7409 34.2591 13.1292 36.0333 13.4551L39 14L36.0333 14.5449C34.2591 14.8708 32.8708 16.2591 32.5449 18.0333L32 21L31.4551 18.0333C31.1292 16.2591 29.7409 14.8708 27.9667 14.5449L25 14L27.9667 13.4551C29.7409 13.1292 31.1292 11.7409 31.4551 9.96666L32 7Z" fill="url(#paint1_linear_140_3576)"/>
<path d="M20.3053 35.2742H22.1689V40.2575C22.1689 40.8334 22.0318 41.3351 21.7577 41.7627C21.4836 42.1877 21.1013 42.5171 20.6109 42.751C20.1205 42.9824 19.5509 43.0981 18.902 43.0981C18.2456 43.0981 17.6722 42.9824 17.1818 42.751C16.6914 42.5171 16.3104 42.1877 16.0388 41.7627C15.7672 41.3351 15.6314 40.8334 15.6314 40.2575V35.2742H17.4987V40.0953C17.4987 40.3619 17.5566 40.5995 17.6722 40.8083C17.7904 41.017 17.9552 41.1805 18.1664 41.2987C18.3777 41.4169 18.6229 41.476 18.902 41.476C19.1812 41.476 19.4251 41.4169 19.6339 41.2987C19.8451 41.1805 20.0098 41.017 20.128 40.8083C20.2462 40.5995 20.3053 40.3619 20.3053 40.0953V35.2742ZM29.7284 37.5904C29.7032 37.3138 29.5913 37.0988 29.3926 36.9454C29.1965 36.7894 28.9161 36.7115 28.5514 36.7115C28.31 36.7115 28.1088 36.7429 27.9478 36.8058C27.7869 36.8687 27.6662 36.9554 27.5857 37.0661C27.5052 37.1742 27.4637 37.2987 27.4612 37.4395C27.4562 37.5552 27.4788 37.6571 27.5291 37.7451C27.5819 37.8331 27.6574 37.9111 27.7554 37.979C27.856 38.0444 27.9767 38.1022 28.1176 38.1525C28.2584 38.2028 28.4169 38.2468 28.5929 38.2846L29.2568 38.4355C29.6391 38.5184 29.9761 38.6291 30.2678 38.7674C30.5621 38.9057 30.8085 39.0705 31.0072 39.2616C31.2084 39.4527 31.3605 39.6728 31.4637 39.9218C31.5668 40.1707 31.6196 40.4499 31.6221 40.7592C31.6196 41.2471 31.4964 41.6658 31.2524 42.0154C31.0085 42.365 30.6576 42.6328 30.1999 42.8189C29.7447 43.005 29.1952 43.0981 28.5514 43.0981C27.9051 43.0981 27.3417 43.0013 26.8614 42.8076C26.381 42.614 26.0076 42.3197 25.741 41.9249C25.4744 41.53 25.3374 41.0308 25.3298 40.4273H27.1179C27.133 40.6762 27.1996 40.8837 27.3178 41.0497C27.436 41.2157 27.5982 41.3414 27.8045 41.4269C28.0132 41.5124 28.2546 41.5552 28.5288 41.5552C28.7803 41.5552 28.994 41.5212 29.1701 41.4533C29.3486 41.3854 29.4857 41.2911 29.5813 41.1704C29.6768 41.0497 29.7259 40.9114 29.7284 40.7554C29.7259 40.6096 29.6806 40.4851 29.5926 40.382C29.5045 40.2764 29.3687 40.1858 29.1852 40.1104C29.0041 40.0324 28.7727 39.9607 28.491 39.8954L27.6838 39.7067C27.0148 39.5533 26.4879 39.3056 26.1031 38.9636C25.7184 38.619 25.5272 38.1538 25.5297 37.5678C25.5272 37.09 25.6555 36.6712 25.9145 36.3116C26.1736 35.952 26.5319 35.6716 26.9896 35.4704C27.4474 35.2692 27.9692 35.1686 28.5552 35.1686C29.1537 35.1686 29.673 35.2704 30.1132 35.4742C30.5558 35.6753 30.8991 35.9583 31.143 36.3229C31.387 36.6876 31.5114 37.1101 31.5165 37.5904H29.7284ZM37.634 43H34.7783V35.2742H37.6302C38.4174 35.2742 39.0951 35.4289 39.6635 35.7382C40.2344 36.045 40.6745 36.4877 40.9838 37.0661C41.2932 37.642 41.4478 38.3311 41.4478 39.1333C41.4478 39.9381 41.2932 40.6297 40.9838 41.2081C40.677 41.7866 40.2382 42.2304 39.6673 42.5398C39.0964 42.8466 38.4186 43 37.634 43ZM36.6456 41.4081H37.5623C37.9949 41.4081 38.3608 41.3351 38.6601 41.1893C38.9618 41.0409 39.1894 40.8007 39.3428 40.4687C39.4988 40.1343 39.5767 39.6891 39.5767 39.1333C39.5767 38.5775 39.4988 38.1349 39.3428 37.8055C39.1869 37.4735 38.9568 37.2346 38.6525 37.0887C38.3507 36.9403 37.9785 36.8662 37.5359 36.8662H36.6456V41.4081Z" fill="#1F2333"/>
<defs>
<linearGradient id="paint0_linear_140_3576" x1="28" y1="22.8844" x2="28" y2="55.5001" gradientUnits="userSpaceOnUse">
<stop stop-color="white"/>
<stop offset="1" stop-color="white" stop-opacity="0"/>
</linearGradient>
<linearGradient id="paint1_linear_140_3576" x1="36.4655" y1="9.77586" x2="27.6552" y2="17.9828" gradientUnits="userSpaceOnUse">
<stop stop-color="#FFF0E1"/>
<stop offset="1" stop-color="#FDCEAA"/>
</linearGradient>
</defs>
</svg>
