<svg width="56" height="56" viewBox="0 0 56 56" fill="none" xmlns="http://www.w3.org/2000/svg">
<rect x="4" y="4" width="48" height="48" rx="24" fill="white"/>
<rect x="4" y="4" width="48" height="48" rx="24" stroke="black" stroke-width="8"/>
<g clip-path="url(#clip0_477_789)">
<path d="M27.0733 36.7972C25.9358 36.7599 24.8823 36.648 23.9127 36.4615C22.9617 36.2751 22.1319 36.0233 21.4233 35.7063V32.5737C22.1319 32.9093 23.0083 33.217 24.0525 33.4967C25.0967 33.7764 26.1036 33.9349 27.0733 33.9722V29.2173C26.0477 28.8444 25.1713 28.4808 24.4441 28.1265C23.7169 27.7535 23.1295 27.362 22.682 26.9517C22.2531 26.5229 21.9268 26.0474 21.703 25.5253C21.4979 25.0032 21.3954 24.4065 21.3954 23.7352C21.3954 22.8028 21.6284 22.001 22.0946 21.3298C22.5794 20.6585 23.2507 20.127 24.1085 19.7355C24.9662 19.3252 25.9545 19.0828 27.0733 19.0082V16.7706H28.9193V18.9523C29.9449 18.9896 30.8958 19.1108 31.7722 19.3159C32.6486 19.521 33.4877 19.7914 34.2895 20.127L33.1987 22.8961C32.5088 22.6164 31.7909 22.3926 31.045 22.2248C30.3178 22.0383 29.6092 21.9171 28.9193 21.8612V26.5042C30.0008 26.8585 30.9798 27.2501 31.8561 27.6789C32.7512 28.1078 33.4504 28.6486 33.9539 29.3012C34.476 29.9352 34.7371 30.765 34.7371 31.7905C34.7371 33.1331 34.2429 34.2426 33.2546 35.119C32.2664 35.9954 30.8213 36.5268 28.9193 36.7133V39.6221H27.0733V36.7972ZM28.9193 33.8603C29.7211 33.7484 30.3085 33.534 30.6814 33.217C31.073 32.9 31.2688 32.4898 31.2688 31.9863C31.2688 31.6507 31.1849 31.3617 31.017 31.1193C30.8679 30.8769 30.6161 30.6624 30.2619 30.4759C29.9262 30.2708 29.4787 30.075 28.9193 29.8886V33.8603ZM27.0733 21.9171C26.5885 21.9731 26.1782 22.0756 25.8426 22.2248C25.5256 22.374 25.2832 22.5698 25.1154 22.8122C24.9476 23.0546 24.8636 23.3343 24.8636 23.6513C24.8636 23.9869 24.9289 24.2853 25.0594 24.5463C25.2086 24.7887 25.4417 25.0125 25.7587 25.2176C26.0943 25.4227 26.5325 25.6185 27.0733 25.805V21.9171Z" fill="#E70028"/>
</g>
<mask id="mask0_477_789" style="mask-type:alpha" maskUnits="userSpaceOnUse" x="0" y="0" width="56" height="56">
<circle cx="28" cy="28" r="24" stroke="black" stroke-width="8"/>
</mask>
<g mask="url(#mask0_477_789)">
<rect x="44.3333" y="18.4727" width="15.9667" height="19.0547" fill="white"/>
<rect x="47.8239" y="25.0133" width="12.4761" height="5.62231" fill="#E70028"/>
</g>
<defs>
<clipPath id="clip0_477_789">
<rect width="32.6667" height="32.6667" fill="white" transform="translate(11.6666 11.6666)"/>
</clipPath>
</defs>
</svg>
