<svg width="56" height="56" viewBox="0 0 56 56" fill="none" xmlns="http://www.w3.org/2000/svg">
<rect width="56" height="56" rx="28" fill="#2775CA"/>
<path d="M28.335 44.67C19.3125 44.67 12 37.3575 12 28.335C12 19.3125 19.3125 12 28.335 12C37.3575 12 44.67 19.3125 44.67 28.335C44.67 32.6673 42.949 36.8222 39.8856 39.8856C36.8222 42.949 32.6673 44.67 28.335 44.67ZM27.3618 22.2737C26.4681 22.318 25.6232 22.6948 24.993 23.3301C24.3628 23.9655 23.9929 24.8134 23.9558 25.7075C23.9558 27.3897 24.9846 28.4879 27.1672 28.9467L28.6965 29.3081C30.184 29.6557 30.7957 30.1562 30.7957 31.0042C30.7957 31.8522 29.7252 32.6864 28.335 32.6864C27.8412 32.7316 27.3446 32.637 26.9021 32.4133C26.4595 32.1895 26.0889 31.8458 25.8326 31.4213C25.7567 31.2602 25.6368 31.1239 25.4868 31.0279C25.3367 30.932 25.1627 30.8804 24.9846 30.8791H24.1644C24.1013 30.8908 24.0411 30.9148 23.9874 30.9498C23.9336 30.9848 23.8873 31.0301 23.8512 31.0831C23.815 31.1361 23.7896 31.1957 23.7766 31.2585C23.7635 31.3213 23.763 31.3861 23.7751 31.4491C23.9749 32.2645 24.4394 32.9907 25.096 33.5139C25.7526 34.0372 26.5641 34.3279 27.4036 34.3407V35.5085C27.4036 35.7684 27.5068 36.0177 27.6906 36.2015C27.8744 36.3853 28.1237 36.4886 28.3837 36.4886C28.6436 36.4886 28.8929 36.3853 29.0767 36.2015C29.2605 36.0177 29.3638 35.7684 29.3638 35.5085V34.3268C30.313 34.3161 31.2205 33.9351 31.893 33.2652C32.5656 32.5953 32.95 31.6892 32.9644 30.7401C32.9644 28.9745 31.9496 27.9596 29.5445 27.4453L28.1543 27.1394C26.7641 26.7919 26.1107 26.3331 26.1107 25.5546C26.1107 24.7761 26.9448 23.9141 28.335 23.9141C28.7728 23.8684 29.2145 23.9504 29.6068 24.1502C29.999 24.35 30.325 24.6591 30.5454 25.0402C30.6348 25.2305 30.7762 25.3916 30.9534 25.5048C31.1306 25.6179 31.3362 25.6786 31.5464 25.6797H32.1998C32.3483 25.6434 32.4767 25.5502 32.5573 25.4202C32.6379 25.2902 32.6643 25.1338 32.6308 24.9846C32.4424 24.2317 32.0211 23.5575 31.4269 23.0582C30.8328 22.5589 30.0961 22.26 29.322 22.2042V21.2449C29.322 20.985 29.2188 20.7357 29.035 20.5519C28.8512 20.3681 28.6019 20.2648 28.3419 20.2648C28.082 20.2648 27.8327 20.3681 27.6489 20.5519C27.4651 20.7357 27.3618 20.985 27.3618 21.2449V22.2737ZM16.0872 28.335C16.0888 30.8959 16.8949 33.3915 18.3916 35.4695C19.8883 37.5474 22.0001 39.1026 24.4285 39.9155H24.6231C24.789 39.9155 24.9482 39.8496 25.0655 39.7322C25.1828 39.6149 25.2487 39.4558 25.2487 39.2899V38.9979C25.2492 38.7391 25.1728 38.486 25.0293 38.2707C24.8857 38.0554 24.6815 37.8876 24.4424 37.7884C22.5512 37.0251 20.9312 35.7139 19.7905 34.0233C18.6497 32.3327 18.0402 30.3397 18.0402 28.3002C18.0402 26.2608 18.6497 24.2678 19.7905 22.5772C20.9312 20.8866 22.5512 19.5754 24.4424 18.812C24.6804 18.7154 24.8841 18.55 25.0277 18.3371C25.1713 18.1242 25.2483 17.8733 25.2487 17.6165V17.2967C25.2496 17.2028 25.2279 17.1101 25.1853 17.0264C25.1428 16.9427 25.0806 16.8706 25.0042 16.816C24.9278 16.7614 24.8394 16.7261 24.7464 16.7129C24.6535 16.6998 24.5587 16.7093 24.4702 16.7406C22.0317 17.5471 19.9093 19.1014 18.4045 21.1827C16.8996 23.264 16.0888 25.7666 16.0872 28.335ZM40.5828 28.335C40.5783 25.7765 39.7708 23.284 38.2743 21.2088C36.7778 19.1336 34.6677 17.5805 32.2415 16.7684H32.033C31.8597 16.7684 31.6935 16.8373 31.5709 16.9598C31.4484 17.0823 31.3796 17.2485 31.3796 17.4218V17.6304C31.3852 17.8985 31.4682 18.1593 31.6187 18.3813C31.7691 18.6033 31.9806 18.777 32.2276 18.8816C34.1145 19.6472 35.7301 20.9584 36.8675 22.6474C38.005 24.3365 38.6126 26.3265 38.6126 28.3628C38.6126 30.3991 38.005 32.3892 36.8675 34.0782C35.7301 35.7672 34.1145 37.0784 32.2276 37.8441C31.9853 37.9497 31.7782 38.1222 31.6305 38.3413C31.4827 38.5604 31.4005 38.8172 31.3935 39.0813V39.3177C31.3947 39.4207 31.4202 39.5221 31.468 39.6134C31.5159 39.7047 31.5846 39.7834 31.6687 39.843C31.7527 39.9027 31.8497 39.9416 31.9517 39.9566C32.0536 39.9716 32.1577 39.9623 32.2554 39.9294C34.6835 39.1134 36.7938 37.5551 38.2881 35.4745C39.7824 33.394 40.5851 30.8965 40.5828 28.335Z" fill="white"/>
</svg>
