<svg width="56" height="56" viewBox="0 0 56 56" fill="none" xmlns="http://www.w3.org/2000/svg">
<rect x="0.5" y="0.5" width="55" height="55" rx="27.5" fill="#2775CA"/>
<rect x="0.5" y="0.5" width="55" height="55" rx="27.5" stroke="white"/>
<path d="M28 41.611C20.4821 41.611 14.3889 35.5179 14.3889 27.9999C14.3889 20.4819 20.4821 14.3888 28 14.3888C35.518 14.3888 41.6111 20.4819 41.6111 27.9999C41.6111 31.6098 40.1771 35.0718 37.6245 37.6244C35.072 40.177 31.6099 41.611 28 41.611ZM27.1892 22.9493C26.4444 22.9862 25.7404 23.3002 25.2153 23.8296C24.6902 24.359 24.382 25.0655 24.3511 25.8105C24.3511 27.2122 25.2083 28.1273 27.027 28.5096L28.3012 28.8108C29.5407 29.1004 30.0504 29.5174 30.0504 30.224C30.0504 30.9306 29.1584 31.6257 28 31.6257C27.5886 31.6634 27.1748 31.5845 26.8061 31.3981C26.4373 31.2117 26.1285 30.9253 25.9149 30.5715C25.8516 30.4373 25.7518 30.3237 25.6267 30.2438C25.5017 30.1639 25.3567 30.1209 25.2083 30.1198H24.5249C24.4723 30.1295 24.4222 30.1495 24.3774 30.1787C24.3326 30.2079 24.294 30.2456 24.2639 30.2898C24.2337 30.3339 24.2126 30.3836 24.2017 30.4359C24.1909 30.4882 24.1904 30.5422 24.2005 30.5947C24.367 31.2742 24.7541 31.8793 25.3011 32.3152C25.8482 32.7512 26.5244 32.9935 27.2239 33.0042V33.9772C27.2239 34.1938 27.3099 34.4015 27.4631 34.5547C27.6163 34.7078 27.824 34.7939 28.0406 34.7939C28.2572 34.7939 28.4649 34.7078 28.618 34.5547C28.7712 34.4015 28.8572 34.1938 28.8572 33.9772V32.9926C29.6482 32.9836 30.4044 32.6662 30.9647 32.108C31.5251 31.5498 31.8454 30.7948 31.8575 30.0039C31.8575 28.5328 31.0119 27.6871 29.0078 27.2585L27.8494 27.0037C26.691 26.7141 26.1466 26.3318 26.1466 25.6831C26.1466 25.0344 26.8416 24.3162 28 24.3162C28.3648 24.2781 28.7329 24.3464 29.0597 24.5129C29.3866 24.6794 29.6582 24.937 29.8419 25.2545C29.9163 25.4131 30.0342 25.5473 30.1818 25.6416C30.3294 25.7359 30.5007 25.7865 30.6759 25.7874H31.2204C31.3441 25.7571 31.4511 25.6795 31.5183 25.5712C31.5854 25.4628 31.6074 25.3325 31.5795 25.2082C31.4225 24.5808 31.0715 24.0191 30.5764 23.603C30.0813 23.187 29.4675 22.938 28.8225 22.8914V22.0921C28.8225 21.8755 28.7364 21.6678 28.5833 21.5146C28.4301 21.3615 28.2224 21.2754 28.0058 21.2754C27.7892 21.2754 27.5815 21.3615 27.4283 21.5146C27.2752 21.6678 27.1892 21.8755 27.1892 22.0921V22.9493ZM17.7946 27.9999C17.7959 30.1337 18.4676 32.2132 19.7147 33.9447C20.9619 35.6761 22.7214 36.972 24.7449 37.6493H24.9071C25.0454 37.6493 25.178 37.5944 25.2757 37.4966C25.3735 37.3989 25.4284 37.2663 25.4284 37.128V36.8848C25.4288 36.6691 25.3651 36.4583 25.2455 36.2788C25.1259 36.0994 24.9557 35.9596 24.7565 35.877C23.1807 35.2409 21.8308 34.1484 20.8803 32.7397C19.9298 31.331 19.4219 29.6703 19.4219 27.9709C19.4219 26.2715 19.9298 24.6109 20.8803 23.2022C21.8308 21.7935 23.1807 20.701 24.7565 20.0649C24.9548 19.9844 25.1246 19.8466 25.2443 19.6692C25.3639 19.4918 25.428 19.2827 25.4284 19.0687V18.8023C25.4291 18.724 25.411 18.6468 25.3756 18.5771C25.3401 18.5073 25.2883 18.4472 25.2247 18.4017C25.161 18.3562 25.0873 18.3268 25.0099 18.3159C24.9324 18.3049 24.8535 18.3128 24.7797 18.3389C22.7478 19.0109 20.9794 20.306 19.7254 22.0403C18.4715 23.7745 17.7959 25.8598 17.7946 27.9999ZM38.2055 27.9999C38.2017 25.868 37.5289 23.7911 36.282 22.062C35.035 20.3329 33.2767 19.0387 31.2551 18.3621H31.0814C30.937 18.3621 30.7985 18.4194 30.6964 18.5215C30.5943 18.6236 30.5369 18.7621 30.5369 18.9065V19.0803C30.5416 19.3037 30.6108 19.521 30.7362 19.706C30.8615 19.891 31.0377 20.0357 31.2435 20.1228C32.8158 20.7608 34.162 21.8534 35.1098 23.2607C36.0575 24.6681 36.5638 26.3263 36.5638 28.0231C36.5638 29.7198 36.0575 31.378 35.1098 32.7854C34.162 34.1928 32.8158 35.2854 31.2435 35.9233C31.0417 36.0113 30.8691 36.155 30.746 36.3376C30.6229 36.5202 30.5544 36.7341 30.5485 36.9543V37.1512C30.5495 37.2371 30.5708 37.3215 30.6106 37.3976C30.6505 37.4737 30.7078 37.5392 30.7778 37.5889C30.8478 37.6386 30.9286 37.6711 31.0136 37.6836C31.0986 37.6961 31.1853 37.6883 31.2667 37.6609C33.2899 36.981 35.0483 35.6825 36.2934 33.9489C37.5385 32.2153 38.2074 30.1343 38.2055 27.9999Z" fill="white"/>
</svg>
