<svg width="57" height="56" viewBox="0 0 57 56" fill="none" xmlns="http://www.w3.org/2000/svg">
<g clip-path="url(#clip0_222_64)">
<path d="M28.8768 1.00122C43.797 1.00122 55.8826 13.0868 55.8826 28.007C55.8826 42.9131 43.797 55.0128 28.8768 55.0128C13.9567 55.0128 1.87103 42.9131 1.87103 28.007C1.87103 13.0868 13.9567 1.00122 28.8768 1.00122Z" fill="#111111" stroke="#111111" stroke-width="0.961504"/>
<path fill-rule="evenodd" clip-rule="evenodd" d="M24.4769 5.37292C13.8579 7.41775 5.83374 16.7675 5.83374 27.9788C5.83374 39.1901 13.8579 48.5399 24.4769 50.5847V48.4271C15.0284 46.4104 7.94908 38.0196 7.94908 27.9788C7.94908 17.938 15.0284 9.54719 24.4769 7.53057V5.37292ZM33.2767 7.54467V5.38703C43.8816 7.44595 51.8776 16.7816 51.8776 27.9788C51.8776 39.176 43.8816 48.5117 33.2767 50.5706V48.413C42.697 46.3822 49.7622 38.0055 49.7622 27.9788C49.7622 17.9521 42.697 9.57539 33.2767 7.54467Z" fill="white"/>
<path d="M32.1344 27.2173C33.8972 27.5558 35.251 28.2045 36.224 29.1494C37.1971 30.0801 37.6766 31.2788 37.6766 32.7313V35.03C37.6766 36.7787 37.042 38.1889 35.7869 39.2607C34.5318 40.3183 32.8677 40.8401 30.8229 40.8401H30.1178V44.4926H27.6922V40.8401H26.9448C25.5909 40.8401 24.4063 40.544 23.3628 39.9376C22.3333 39.3171 21.5154 38.4568 20.9372 37.3569C20.3731 36.2287 20.0911 34.9454 20.0911 33.4787H22.5166C22.5166 34.9595 22.9256 36.1723 23.7294 37.103C24.5615 38.0056 25.6614 38.4709 27.0012 38.4709H30.7524C32.078 38.4709 33.1497 38.1607 33.9677 37.5402C34.7715 36.8915 35.1805 36.0594 35.1805 35.03V32.7313C35.1805 31.9134 34.8702 31.2224 34.2638 30.6442C33.6715 30.066 32.8677 29.6993 31.8382 29.5301L25.7602 28.4583C24.0538 28.1481 22.7141 27.4994 21.7692 26.5263C20.8244 25.5392 20.3449 24.3123 20.3449 22.8315V20.8995C20.3449 19.1509 20.9513 17.7688 22.1641 16.7394C23.4051 15.6817 25.041 15.1599 27.0576 15.1599H27.664V11.5074H30.0896V15.1599H30.8652C32.7831 15.1599 34.3202 15.7804 35.4907 17.0214C36.6612 18.2342 37.2535 19.856 37.2535 21.8585H34.8279C34.8279 20.547 34.4612 19.4893 33.742 18.6996C33.0228 17.9099 32.0639 17.515 30.8652 17.515H27.0435C25.7602 17.515 24.7307 17.8253 23.9692 18.4457C23.2077 19.038 22.8269 19.856 22.8269 20.8854V22.8174C22.8269 23.6495 23.1089 24.3546 23.673 24.9328C24.2653 25.511 25.0551 25.8917 26.0704 26.0751L32.1344 27.2173Z" fill="white"/>
</g>
<defs>
<clipPath id="clip0_222_64">
<rect width="56" height="56" fill="white" transform="translate(0.869751)"/>
</clipPath>
</defs>
</svg>
