<svg width="56" height="56" viewBox="0 0 56 56" fill="none" xmlns="http://www.w3.org/2000/svg">
<rect width="56" height="56" rx="28" fill="url(#paint0_linear_140_3704)"/>
<path d="M19.9678 20.028C21.6929 16.3983 26.0604 14.7043 29.8066 15.0427C30.1097 15.07 30.4041 15.1111 30.6895 15.1638C30.7356 15.1718 30.7819 15.1799 30.8281 15.1891C30.8778 15.1991 30.9274 15.2107 30.9766 15.2214C31.0158 15.2299 31.0548 15.2388 31.0938 15.2477C31.1796 15.2676 31.2645 15.2892 31.3486 15.3112C31.3954 15.3234 31.442 15.3355 31.4883 15.3483C31.552 15.3661 31.615 15.3851 31.6777 15.404C31.7403 15.4229 31.8026 15.4416 31.8643 15.4616C31.9228 15.4806 31.9805 15.5011 32.0381 15.5212C32.091 15.5396 32.1441 15.5566 32.1963 15.5759C32.2688 15.6026 32.3401 15.6315 32.4111 15.6599C32.4599 15.6793 32.5086 15.6983 32.5566 15.7184C32.7765 15.8105 32.9895 15.9095 33.1953 16.0153C33.215 16.0255 33.2343 16.0363 33.2539 16.0466C33.3353 16.0891 33.416 16.1319 33.4951 16.1765C33.5572 16.2114 33.618 16.2478 33.6787 16.2839C33.7117 16.3034 33.7448 16.3226 33.7773 16.3425C33.8251 16.3716 33.8721 16.4015 33.9189 16.4313C33.9822 16.4715 34.0448 16.512 34.1064 16.5534C34.1275 16.5675 34.1481 16.5821 34.1689 16.5964C34.2343 16.641 34.2987 16.6863 34.3623 16.7321C34.4027 16.7612 34.4428 16.7904 34.4824 16.82C34.5318 16.8568 34.5806 16.8939 34.6289 16.9313C34.6632 16.958 34.6967 16.9854 34.7305 17.0124C34.7901 17.06 34.8494 17.1074 34.9072 17.1559C34.9274 17.1729 34.9478 17.1896 34.9678 17.2067C35.0311 17.2608 35.0931 17.3157 35.1543 17.3708C35.1749 17.3893 35.1955 17.4078 35.2158 17.4265C35.7723 17.9359 36.2397 18.4846 36.6201 19.03C36.693 19.1345 36.7616 19.2395 36.8281 19.3434C36.8572 19.3889 36.8862 19.4339 36.9141 19.4792C36.9817 19.589 37.0459 19.6981 37.1064 19.8063C37.1248 19.8392 37.1424 19.8723 37.1602 19.905C37.2224 20.0197 37.2808 20.133 37.335 20.2448C37.3473 20.2703 37.3592 20.2957 37.3711 20.321C37.4954 20.5845 37.5977 20.8377 37.6768 21.0749L35.7432 21.7194C35.5506 21.1417 35.1643 20.419 34.583 19.7145C34.4256 19.5237 34.2546 19.3338 34.0684 19.1491C33.1703 18.2593 31.9361 17.4794 30.3545 17.1765C28.9407 16.9233 27.5593 17.5794 26.7393 18.6491C25.9163 19.7227 25.7647 21.0466 26.5713 22.1423C26.735 22.3645 26.9166 22.5794 27.1152 22.7849C27.8225 23.5162 28.7431 24.1342 29.7881 24.7321C30.3083 25.0297 30.8446 25.314 31.3916 25.6052C31.9329 25.8933 32.4866 26.1888 33.0166 26.4968C35.0836 27.6977 37.2127 29.3192 37.1592 32.2614C37.1237 34.207 36.2613 35.9896 35.0889 37.2507C33.2641 39.2134 30.4314 40.2903 27.833 40.3854C27.7941 40.3872 27.755 40.3892 27.7158 40.3903C27.6869 40.3911 27.6578 40.3937 27.6289 40.3942C27.4057 40.398 27.18 40.3904 26.9521 40.3727C26.9369 40.3715 26.9216 40.3701 26.9062 40.3688C26.6283 40.3455 26.3475 40.3056 26.0645 40.2477C26.0617 40.2472 26.0585 40.2473 26.0557 40.2468C26.0544 40.2465 26.0531 40.2461 26.0518 40.2458C25.9092 40.2164 25.7665 40.181 25.623 40.1423C25.6111 40.139 25.5989 40.1368 25.5869 40.1335C25.242 40.0385 24.895 39.9159 24.5469 39.7634C24.5006 39.7431 24.4545 39.7222 24.4082 39.7009C24.373 39.6846 24.3379 39.6679 24.3027 39.6511C24.2598 39.6306 24.2167 39.61 24.1738 39.5886C24.129 39.5661 24.0839 39.5437 24.0391 39.5202C23.9951 39.4973 23.9512 39.4738 23.9072 39.4499C23.8664 39.4276 23.825 39.4057 23.7842 39.3825C23.7056 39.338 23.6273 39.2916 23.5488 39.2438C23.5131 39.2221 23.4781 39.1989 23.4424 39.1765C23.3949 39.1466 23.3472 39.1166 23.2998 39.0856C23.2633 39.0617 23.227 39.0371 23.1904 39.0124C23.1347 38.9748 23.079 38.9364 23.0234 38.8972C22.9959 38.8777 22.968 38.8585 22.9404 38.8386C22.2238 38.3208 21.5165 37.6595 20.8301 36.8337C20.805 36.8036 20.7799 36.7734 20.7549 36.7429C20.427 36.3418 20.1046 35.9027 19.7881 35.4235C19.7588 35.3792 19.7294 35.3347 19.7002 35.2897C19.6414 35.199 19.5827 35.1069 19.5244 35.0134C19.5014 34.9764 19.4781 34.9394 19.4551 34.902C19.4036 34.8183 19.3528 34.7332 19.3018 34.6472C19.2742 34.6008 19.2462 34.5545 19.2188 34.5075C19.1456 34.3821 19.0723 34.2539 19 34.1237L20.7812 33.1335C22.081 35.4731 23.4454 36.8194 24.7061 37.5573C24.766 37.5923 24.8253 37.6266 24.8848 37.6589C25.0761 37.763 25.2646 37.8535 25.4502 37.9313C25.4906 37.9482 25.5312 37.9635 25.5713 37.9792C25.834 38.0825 26.0894 38.1617 26.3369 38.2194C26.5122 38.2603 26.684 38.2904 26.8516 38.3122C28.3949 38.5114 29.7271 37.9747 30.4922 37.4011L30.501 37.3942L30.5107 37.3874C31.4624 36.7076 31.7321 36.1183 31.7715 35.6755C31.8136 35.1992 31.6167 34.6096 31.0732 33.8981C29.9721 32.4565 27.8499 31.0343 25.8662 29.9157C24.0401 28.886 21.7621 27.6795 20.4639 25.5495C19.1856 23.4518 19.2341 21.5721 19.9678 20.028ZM24.7021 18.0388C23.435 18.7029 22.3918 19.678 21.8096 20.903C21.382 21.803 21.271 22.9551 22.2051 24.488C23.1713 26.0734 24.9032 27.0319 26.8672 28.1393C28.8602 29.2631 31.3159 30.8575 32.6934 32.6608C33.3415 33.5095 33.8342 34.5137 33.8135 35.611C34.5769 34.6881 35.0982 33.4804 35.1211 32.2243C35.1521 30.5202 34.018 29.4369 31.9932 28.2604C31.5007 27.9743 30.979 27.6953 30.4336 27.405C29.8936 27.1175 29.3287 26.8176 28.7764 26.5016C27.6761 25.8721 26.5583 25.1407 25.6504 24.2018C25.3905 23.9331 25.1491 23.6492 24.9297 23.3513C23.6475 21.6098 23.8048 19.6015 24.7021 18.0388Z" fill="white"/>
<defs>
<linearGradient id="paint0_linear_140_3704" x1="28" y1="56" x2="28" y2="3.33896e-07" gradientUnits="userSpaceOnUse">
<stop stop-color="#FFC23B"/>
<stop offset="1" stop-color="#FF8A5C"/>
</linearGradient>
</defs>
</svg>
