<svg xmlns="http://www.w3.org/2000/svg" width="56" height="56" fill="none">
  <g clip-path="url(#a)">
    <path fill="#009393" d="M0 28c0 15.464 12.536 28 28 28s28-12.536 28-28S43.464 0 28 0 0 12.536 0 28Z" />
    <path fill="#fff" d="M18.543 28.76c.924 1.024 4.693 1.792 9.204 1.792 4.511 0 8.28-.768 9.202-1.793-.78-.869-3.61-1.553-7.205-1.74v2.166a39.985 39.985 0 0 1-3.996 0V27.02c-3.591.187-6.422.871-7.205 1.74Z" />
    <path fill="#fff" fill-rule="evenodd" d="m39.842 16.314 6.154 10.63v.002c.32.55.225 1.245-.23 1.693L28.822 45.274c-.55.54-1.434.54-1.981 0L9.92 28.66a1.396 1.396 0 0 1-.21-1.727l6.578-10.654a1.417 1.417 0 0 1 1.202-.667h21.13c.504 0 .968.267 1.22.702ZM29.747 23.34v2.068h-.003c4.227.222 7.4 1.13 7.423 2.219v2.267c-.023 1.09-3.196 1.995-7.423 2.217v5.076h-3.996v-5.076c-4.227-.222-7.397-1.128-7.42-2.217v-2.267c.023-1.09 3.193-1.997 7.42-2.219v-2.068h-6.017V20.36h16.033v2.982h-6.018Z" clip-rule="evenodd" />
  </g>
  <defs>
    <clipPath id="a">
      <path fill="#fff" d="M0 0h56v56H0z" />
    </clipPath>
  </defs>
</svg>
