<svg width="56" height="56" viewBox="0 0 56 56" fill="none" xmlns="http://www.w3.org/2000/svg">
<rect x="0.5" y="0.5" width="55" height="55" rx="27.5" fill="#00A478"/>
<rect x="0.5" y="0.5" width="55" height="55" rx="27.5" stroke="white"/>
<path fill-rule="evenodd" clip-rule="evenodd" d="M30.8103 29.0232V29.0201C30.642 29.0323 29.7744 29.0844 27.8388 29.0844C26.2934 29.0844 25.2055 29.0385 24.823 29.0201V29.0247C18.8739 28.763 14.4335 27.7271 14.4335 26.4878C14.4335 25.2499 18.8739 24.214 24.823 23.9478V27.9934C25.2116 28.0209 26.3255 28.0867 27.8648 28.0867C29.7117 28.0867 30.6374 28.0102 30.8103 27.9949V23.9508C36.7471 24.2155 41.1768 25.2514 41.1768 26.4878C41.1768 27.7271 36.7471 28.76 30.8103 29.0232ZM30.8103 23.5301V19.9098H39.0943V14.3892H16.539V19.9098H24.823V23.5285C18.0905 23.8376 13.0273 25.1719 13.0273 26.7693C13.0273 28.3667 18.0905 29.6995 24.823 30.0101V41.6114H30.8103V30.007C37.5321 29.6979 42.583 28.3652 42.583 26.7693C42.583 25.1734 37.5321 23.8407 30.8103 23.5301Z" fill="white"/>
</svg>
