<svg width="56" height="56" viewBox="0 0 56 56" fill="none" xmlns="http://www.w3.org/2000/svg">
<rect width="56" height="56" rx="28" fill="#00A478"/>
<path fill-rule="evenodd" clip-rule="evenodd" d="M30.8102 29.0232V29.0202C30.6419 29.0324 29.7743 29.0844 27.8387 29.0844C26.2933 29.0844 25.2054 29.0385 24.8229 29.0202V29.0247C18.8738 28.7631 14.4334 27.7272 14.4334 26.4878C14.4334 25.25 18.8738 24.2141 24.8229 23.9478V27.9934C25.2115 28.021 26.3254 28.0868 27.8647 28.0868C29.7116 28.0868 30.6373 28.0103 30.8102 27.995V23.9509C36.747 24.2156 41.1767 25.2515 41.1767 26.4878C41.1767 27.7272 36.747 28.76 30.8102 29.0232ZM30.8102 23.5301V19.9099H39.0942V14.3892H16.5388V19.9099H24.8229V23.5286C18.0904 23.8377 13.0272 25.1719 13.0272 26.7694C13.0272 28.3668 18.0904 29.6995 24.8229 30.0101V41.6114H30.8102V30.0071C37.532 29.698 42.5829 28.3653 42.5829 26.7694C42.5829 25.1735 37.532 23.8407 30.8102 23.5301Z" fill="white"/>
</svg>
