<svg width="56" height="56" viewBox="0 0 56 56" fill="none" xmlns="http://www.w3.org/2000/svg">
<rect width="56" height="56" rx="28" fill="white"/>
<path d="M36.9847 22.8962C36.6956 20.0186 34.2048 19.0647 31.0662 18.8033L31.0483 14.8093L28.6184 14.8213L28.6349 18.71C27.9962 18.7118 27.3442 18.7282 26.6936 18.7443L26.6776 14.83L24.2474 14.8407L24.265 18.8333C23.7388 18.846 23.2213 18.8592 22.7175 18.8605L22.7172 18.8479L19.3642 18.862L19.3761 21.4581C19.3761 21.4581 21.1718 21.4158 21.1421 21.4487C22.1267 21.4449 22.449 22.0149 22.5449 22.5087L22.5659 27.058C22.6334 27.0578 22.7215 27.0607 22.8231 27.0729L22.566 27.0749L22.5944 33.4485C22.5519 33.7578 22.3721 34.2526 21.6833 34.2572C21.7156 34.2843 19.917 34.2653 19.917 34.2653L19.4469 37.1697L22.6112 37.1556C23.1993 37.154 23.7786 37.1617 24.3462 37.1625L24.3656 41.2012L26.7942 41.1896L26.7762 37.1956C27.4432 37.2049 28.0885 37.2071 28.7187 37.2047L28.7353 41.1821L31.1652 41.1702L31.1477 37.1394C35.2342 36.8868 38.0894 35.8446 38.4275 32.0051C38.7009 28.9142 37.2411 27.5406 34.9186 26.9945C36.3257 26.2709 37.2002 25.0026 36.9847 22.8962ZM33.6214 31.5479C33.638 34.5666 28.4667 34.2458 26.8189 34.2548L26.7968 28.9032C28.4453 28.8969 33.6087 28.4002 33.6214 31.5479ZM32.4577 24.0027C32.4698 26.7494 28.1579 26.4468 26.7867 26.4531L26.7648 21.6012C28.136 21.595 32.445 21.138 32.4577 24.0027Z" fill="#F7931A"/>
<path d="M44.5 45.5C42.2714 47.7286 40.0962 48.967 37.1844 50.1731C34.2726 51.3792 31.1517 52 28 52C24.8483 52 21.7274 51.3792 18.8156 50.1731C15.9038 48.967 13.7286 47.7286 11.5 45.5" stroke="#5A5563" stroke-width="1.5"/>
<path d="M11.5 10.4999C16.0009 5.99907 21.6349 4.00005 28.0001 4.00005C34.3653 4.00005 39.9991 5.99907 44.5 10.4999" stroke="#5A5563" stroke-width="1.5"/>
<path d="M45.5 11.4999C47.7286 13.7285 48.967 15.9038 50.1731 18.8156C51.3792 21.7274 52 24.8483 52 28C52 31.1517 51.3792 34.2726 50.1731 37.1844C48.967 40.0962 47.7286 42.2713 45.5 44.4999" stroke="#5A5563" stroke-width="1.5"/>
<path d="M10.5 44.4999C5.99913 39.999 4.00001 34.3652 4.00001 28C4.00001 21.6348 5.99913 16.0008 10.5 11.4999" stroke="#5A5563" stroke-width="1.5"/>
</svg>
