<svg width="56" height="56" viewBox="0 0 56 56" fill="none" xmlns="http://www.w3.org/2000/svg">
<rect x="0.5" y="0.5" width="55" height="55" rx="27.5" fill="white"/>
<rect x="0.5" y="0.5" width="55" height="55" rx="27.5" stroke="white"/>
<path d="M36.9847 22.8961C36.6956 20.0185 34.2048 19.0646 31.0662 18.8033L31.0483 14.8093L28.6184 14.8212L28.6349 18.71C27.9962 18.7118 27.3442 18.7282 26.6936 18.7442L26.6776 14.83L24.2474 14.8406L24.265 18.8333C23.7388 18.8459 23.2213 18.8591 22.7175 18.8604L22.7172 18.8478L19.3642 18.862L19.3761 21.458C19.3761 21.458 21.1718 21.4157 21.1421 21.4486C22.1267 21.4448 22.449 22.0149 22.5449 22.5086L22.5659 27.058C22.6334 27.0577 22.7215 27.0607 22.8231 27.0729L22.566 27.0748L22.5944 33.4485C22.5519 33.7577 22.3721 34.2526 21.6833 34.2572C21.7156 34.2842 19.917 34.2653 19.917 34.2653L19.4469 37.1696L22.6112 37.1555C23.1993 37.1539 23.7786 37.1616 24.3462 37.1624L24.3656 41.2011L26.7942 41.1895L26.7762 37.1955C27.4432 37.2049 28.0885 37.207 28.7187 37.2046L28.7353 41.1821L31.1652 41.1701L31.1477 37.1394C35.2342 36.8867 38.0894 35.8445 38.4275 32.005C38.7009 28.9141 37.2411 27.5406 34.9186 26.9944C36.3257 26.2708 37.2002 25.0026 36.9847 22.8961ZM33.6214 31.5478C33.638 34.5665 28.4667 34.2458 26.8189 34.2547L26.7968 28.9031C28.4453 28.8968 33.6087 28.4001 33.6214 31.5478ZM32.4577 24.0027C32.4698 26.7493 28.1579 26.4468 26.7867 26.453L26.7648 21.6012C28.136 21.5949 32.445 21.1379 32.4577 24.0027Z" fill="#F7931A"/>
<path d="M44.5 45.5C42.2714 47.7286 40.0962 48.967 37.1844 50.1731C34.2726 51.3792 31.1517 52 28 52C24.8483 52 21.7274 51.3792 18.8156 50.1731C15.9038 48.967 13.7286 47.7286 11.5 45.5" stroke="#5A5563" stroke-width="1.5"/>
<path d="M11.5 10.5C16.0009 5.99913 21.6349 4.00011 28.0001 4.00011C34.3653 4.00011 39.9991 5.99913 44.5 10.5" stroke="#5A5563" stroke-width="1.5"/>
<path d="M45.5 11.4999C47.7286 13.7285 48.967 15.9038 50.1731 18.8156C51.3792 21.7274 52 24.8483 52 28C52 31.1517 51.3792 34.2726 50.1731 37.1844C48.967 40.0962 47.7286 42.2713 45.5 44.4999" stroke="#5A5563" stroke-width="1.5"/>
<path d="M10.5 44.4999C5.99913 39.999 4.00001 34.3652 4.00001 28C4.00001 21.6348 5.99913 16.0008 10.5 11.4999" stroke="#5A5563" stroke-width="1.5"/>
</svg>
