<svg width="56" height="56" viewBox="0 0 56 56" fill="none" xmlns="http://www.w3.org/2000/svg">
<rect x="0.5" y="0.5" width="55" height="55" rx="27.5" fill="#64688D"/>
<rect x="0.5" y="0.5" width="55" height="55" rx="27.5" stroke="white"/>
<path d="M27.9989 23.6785L20.1463 27.9995L27.9988 32.2896H28.0007L35.8545 27.9995L28.0007 23.6785L27.9989 23.6785Z" fill="white"/>
<path d="M19.8331 29.6439C22.259 33.3272 25.2692 37.4766 28 41.6111C30.7297 37.4789 33.7406 33.3284 36.1665 29.6439C33.3024 31.2122 30.3137 32.8522 28 34.125C25.6852 32.851 22.696 31.2122 19.8331 29.6439Z" fill="white"/>
<path d="M19.8331 26.3073L28 21.875L36.1665 26.3073L28 14.3889L19.8331 26.3073Z" fill="white"/>
</svg>
