<svg width="56" height="56" viewBox="0 0 56 56" fill="none" xmlns="http://www.w3.org/2000/svg">
<rect x="0.5" y="0.5" width="55" height="55" rx="27.5" fill="#00A3FF"/>
<rect x="0.5" y="0.5" width="55" height="55" rx="27.5" stroke="white"/>
<path d="M36.8563 33.0343C36.8563 37.8656 32.9778 41.7821 28.1934 41.7821C23.409 41.7821 19.5305 37.8656 19.5305 33.0343C19.5305 31.9588 19.7227 30.9286 20.0744 29.9768C22.0784 30.7412 24.1344 38.0452 27.8537 38.0452C31.573 38.0452 34.0536 31.9302 36.3124 29.9768C36.6641 30.9286 36.8563 31.9588 36.8563 33.0343Z" fill="#99DAFF"/>
<path d="M28.2488 23.9505L20.4363 28.2494L28.2487 32.5176H28.2507L36.0643 28.2494L28.2507 23.9505L28.2488 23.9505Z" fill="white"/>
<path d="M20.1248 29.8854C22.5383 33.5499 25.5331 37.6781 28.25 41.7916C30.9658 37.6804 33.9612 33.5511 36.3748 29.8854C33.5253 31.4457 30.5519 33.0773 28.25 34.3437C25.9469 33.0762 22.9731 31.4457 20.1248 29.8854Z" fill="white"/>
<path d="M20.1248 26.5658L28.25 22.1562L36.3748 26.5658L28.25 14.7083L20.1248 26.5658Z" fill="white"/>
<path d="M20.1248 26.5661L28.25 22.1564L36.3748 26.5661L28.25 14.7085L20.1248 26.5661Z" fill="white"/>
</svg>
