<svg width="56" height="56" viewBox="0 0 56 56" fill="none" xmlns="http://www.w3.org/2000/svg">
<rect width="56" height="56" rx="28" fill="#00A3FF"/>
<path d="M36.8563 33.0344C36.8563 37.8657 32.9778 41.7822 28.1934 41.7822C23.409 41.7822 19.5305 37.8657 19.5305 33.0344C19.5305 31.9589 19.7227 30.9287 20.0744 29.9769C22.0784 30.7413 24.1344 38.0453 27.8537 38.0453C31.573 38.0453 34.0536 31.9303 36.3124 29.9769C36.6641 30.9287 36.8563 31.9589 36.8563 33.0344Z" fill="#99DAFF"/>
<path d="M28.2488 23.9505L20.4363 28.2494L28.2487 32.5176H28.2507L36.0643 28.2494L28.2507 23.9505L28.2488 23.9505Z" fill="white"/>
<path d="M20.1248 29.8854C22.5383 33.5499 25.5331 37.6781 28.25 41.7916C30.9658 37.6804 33.9612 33.5511 36.3748 29.8854C33.5253 31.4457 30.5519 33.0773 28.25 34.3437C25.9469 33.0762 22.9731 31.4457 20.1248 29.8854Z" fill="white"/>
<path d="M20.1248 26.5658L28.25 22.1562L36.3748 26.5658L28.25 14.7083L20.1248 26.5658Z" fill="white"/>
<path d="M20.1248 26.5661L28.25 22.1564L36.3748 26.5661L28.25 14.7085L20.1248 26.5661Z" fill="white"/>
</svg>
