<svg xmlns="http://www.w3.org/2000/svg" viewBox="0 0 20 20" fill="none">
  <g clip-path="url(#clip0_3025_13533)">
    <path d="M4.15389 9L4.00004 9.23077C2.23081 12 2.61543 15.6154 5.00004 17.9231C6.30774 19.3077 8.15389 20 10 20C10 20 10 20 4.15389 9Z" fill="#00A3FF"/>
    <path opacity="0.6" d="M9.99996 12.3075L4.15381 8.92285C9.99996 19.9998 9.99996 19.9998 9.99996 19.9998C9.99996 17.6152 9.99996 14.8459 9.99996 12.3075Z" fill="#00A3FF"/>
    <path opacity="0.6" d="M15.8462 9L16 9.23077C17.7692 12 17.3846 15.6154 15 17.9231C13.6154 19.3077 11.8462 20 10 20C10 20 10 20 15.8462 9Z" fill="#00A3FF"/>
    <path opacity="0.2" d="M10 12.3075L15.8462 8.92285C10 19.9998 10 19.9998 10 19.9998C10 17.6152 10 14.8459 10 12.3075Z" fill="#00A3FF"/>
    <path opacity="0.2" d="M10 4.8457V10.6149L15.0769 7.76878L10 4.8457Z" fill="#00A3FF"/>
    <path opacity="0.6" d="M10 4.8457L4.9231 7.76878L10 10.6149V4.8457Z" fill="#00A3FF"/>
    <path d="M10 0L4.9231 7.76923L10 4.84615V0Z" fill="#00A3FF"/>
    <path opacity="0.6" d="M10 4.84615L15.0769 7.76923L10 0V4.84615Z" fill="#00A3FF"/>
  </g>
  <defs>
    <clipPath id="clip0_3025_13533">
      <rect width="20" height="20" fill="white"/>
    </clipPath>
  </defs>
</svg>
