<svg width="658" height="188" viewBox="0 0 658 188" fill="none" xmlns="http://www.w3.org/2000/svg">
<path d="M19.4116 68.6873C20.8042 67.2947 23.0628 67.2965 24.4531 68.6915L91.4788 135.939C92.8708 137.336 95.1325 137.336 96.5245 135.939L163.549 68.6935C164.939 67.2985 167.198 67.2967 168.59 68.6893L183.827 83.9257C189.391 89.4898 189.391 98.511 183.827 104.075L104.075 183.827C98.5106 189.391 89.4894 189.391 83.9253 183.827L4.17309 104.075C-1.39103 98.511 -1.39103 89.4898 4.17309 83.9257L19.4116 68.6873Z" fill="white"/>
<path d="M63.2989 80.3557C61.907 81.7523 59.6452 81.7523 58.2532 80.3557L35.5528 57.58C34.1657 56.1883 34.1675 53.9362 35.5569 52.5469L83.931 4.17307C89.4951 -1.39102 98.5163 -1.39102 104.08 4.17307L152.456 52.5488C153.846 53.9382 153.848 56.1903 152.461 57.582L129.762 80.3557C128.37 81.7523 126.108 81.7523 124.716 80.3557L96.5303 52.0767C95.1383 50.6801 92.8765 50.6801 91.4846 52.0767L63.2989 80.3557Z" fill="#FF6521"/>
<path d="M289 58L325 94M325 94L361 130M325 94L289 130M325 94L361 58" stroke="white" stroke-width="7"/>
<g clip-path="url(#clip0_13615_855)">
<mask id="mask0_13615_855" style="mask-type:luminance" maskUnits="userSpaceOnUse" x="462" y="2" width="196" height="184">
<path d="M657.506 2.85449H462V185.151H657.506V2.85449Z" fill="white"/>
</mask>
<g mask="url(#mask0_13615_855)">
<path d="M484.828 126.036V178.519C484.828 181.75 487.562 183.091 488.413 183.396C489.264 183.762 492.12 184.554 494.671 182.177L534.375 144.022C537.756 140.773 541.019 137.357 543.472 133.362C544.626 131.483 545.104 130.425 545.104 130.425C547.535 125.487 547.535 120.733 545.164 115.978C541.642 108.907 532.648 101.714 519.098 94.8872L495.948 107.81C489.082 111.711 484.828 118.599 484.828 126.036Z" fill="white" fill-opacity="0.8"/>
<path d="M462 9.3026V64.3463C462 71.2342 466.618 77.3297 473.18 79.2803C495.541 85.7418 534.489 99.6396 543.908 120.06C545.122 122.742 545.851 125.364 546.096 128.106C552.354 116.708 555.21 103.602 553.873 90.3135C552.049 71.478 542.084 54.3493 526.53 43.4382L471.054 4.60895C470.081 3.87747 468.927 3.51172 467.772 3.51172C466.8 3.51172 465.949 3.69459 465.038 4.18225C463.215 5.2185 462 7.10818 462 9.3026Z" fill="white"/>
<path d="M632.5 126.036V178.519C632.5 181.75 629.767 183.091 628.915 183.396C628.066 183.762 625.208 184.554 622.657 182.177L582.029 143.134C579.264 140.476 576.623 137.665 574.539 134.444C572.89 131.894 572.225 130.425 572.225 130.425C569.794 125.487 569.794 120.733 572.162 115.978C575.687 108.907 584.681 101.714 598.229 94.8872L621.38 107.81C628.308 111.711 632.5 118.599 632.5 126.036Z" fill="white" fill-opacity="0.8"/>
<path d="M655.366 9.30259V64.3462C655.366 71.2341 650.747 77.3296 644.184 79.2805C621.825 85.7417 582.877 99.6398 573.458 120.06C572.242 122.742 571.513 125.363 571.27 128.107C565.012 116.708 562.156 103.602 563.493 90.3136C565.314 71.4779 575.28 54.3495 590.836 43.4381L646.312 4.60893C647.284 3.87745 648.439 3.51172 649.593 3.51172C650.565 3.51172 651.416 3.69459 652.326 4.18225C654.15 5.2185 655.366 7.10816 655.366 9.30259Z" fill="white"/>
</g>
</g>
<defs>
<clipPath id="clip0_13615_855">
<rect width="195.506" height="182.296" fill="white" transform="translate(462 2.85181)"/>
</clipPath>
</defs>
</svg>
